<?xml version="1.0" encoding="UTF-8"?>
<svg version="1.1" xmlns="http://www.w3.org/2000/svg" width="270" height="274">
<path d="M0 0 C89.1 0 178.2 0 270 0 C270 90.42 270 180.84 270 274 C180.9 274 91.8 274 0 274 C0 183.58 0 93.16 0 0 Z " fill="#FBFDFD" transform="translate(0,0)"/>
<path d="M0 0 C16.2870062 3.78348595 30.43854377 14.401924 39.4765625 28.421875 C39.97929687 29.27265625 40.48203125 30.1234375 41 31 C41.54398437 31.91265625 42.08796875 32.8253125 42.6484375 33.765625 C51.95580079 50.74588779 52.20100682 70.63794469 47.0703125 88.9375 C46 92 46 92 44 94 C44.165 93.01 44.33 92.02 44.5 91 C45.67248054 81.4842159 46.0539325 71.1617975 43 62 C42.38640625 62.18433594 41.7728125 62.36867187 41.140625 62.55859375 C38.42182204 63.11922283 37.3213118 62.40936788 35 61 C34.67 61.99 34.34 62.98 34 64 C36.31 64.66 38.62 65.32 41 66 C41 68.97 41 71.94 41 75 C39.35 74.67 37.7 74.34 36 74 C37.65177773 75.65177773 39.84855958 76.17252291 42 77 C42 73.7 42 70.4 42 67 C44 69 44 69 44.265625 72.125 C44.23541428 79.61725918 44.06545138 86.74717936 42 94 C41.63261719 95.32064453 41.63261719 95.32064453 41.2578125 96.66796875 C37.00140295 110.0210412 27.69700478 120.51490322 15.3125 127.0078125 C-0.98121066 135.07721642 -14.59362451 137.28770609 -32.046875 131.4765625 C-45.62114522 126.60292433 -56.623119 116.73267649 -63.13916016 103.87011719 C-70.08335582 88.78431492 -71.22272587 73.41915646 -65.55078125 57.734375 C-63.41292108 52.32854465 -60.48832594 47.63590158 -57 43 C-56.50113281 42.29617187 -56.00226563 41.59234375 -55.48828125 40.8671875 C-47.88287302 31.09701572 -35.13652161 23.93051775 -23 22 C-12.0477172 21.06563841 -1.46379755 21.42699596 9 25 C9.7486383 39.08549091 5.55263405 49.8641627 -1 62 C-1.99 62 -2.98 62 -4 62 C-4.12651242 54.40925494 -4.12651242 54.40925494 -3.41796875 52.1171875 C-2.8257267 49.11723246 -3.51063889 46.8251958 -4.25 43.875 C-4.62898438 42.29332031 -4.62898438 42.29332031 -5.015625 40.6796875 C-5.81132396 37.69985338 -5.81132396 37.69985338 -9 36 C-11.05709596 35.75944532 -11.05709596 35.75944532 -13.1875 35.875 C-14.445625 35.91625 -15.70375 35.9575 -17 36 C-17.66 37.98 -18.32 39.96 -19 42 C-19.66 42 -20.32 42 -21 42 C-20.979375 43.051875 -20.95875 44.10375 -20.9375 45.1875 C-20.98896802 48.32704904 -21.26517187 50.96883396 -22 54 C-19.525 55.98 -19.525 55.98 -17 58 C-17.70125 57.360625 -18.4025 56.72125 -19.125 56.0625 C-21.55683613 52.090501 -20.91771476 50.25034287 -19.87109375 45.890625 C-19.58363281 45.26671875 -19.29617187 44.6428125 -19 44 C-18.01 43.67 -17.02 43.34 -16 43 C-16.020625 42.195625 -16.04125 41.39125 -16.0625 40.5625 C-16 38 -16 38 -15 37 C-12.66055264 37.28730055 -10.3260857 37.61936779 -8 38 C-7.690625 38.969375 -7.38125 39.93875 -7.0625 40.9375 C-6.30476658 43.84065792 -6.30476658 43.84065792 -5 45 C-4.74731123 50.05377544 -4.93089568 53.34451529 -7 58 C-7 62.26826873 -6.62386487 62.93882432 -4 66 C-4.639375 67.0725 -5.27875 68.145 -5.9375 69.25 C-7.40601273 71.80822182 -8.52854542 74.05340886 -9 77 C-5.7433752 75.28299391 -5.7433752 75.28299391 -5.0625 72 C-4 69 -4 69 -1.93359375 67.8125 C-1.29550781 67.544375 -0.65742188 67.27625 0 67 C5.84329545 73.05130921 9.1472344 78.43684901 9.1875 87 C9.14018053 88.33395836 9.08326237 89.66780204 9 91 C1.68920072 89.80150832 -5.18445364 87.78278554 -11 83 C-12.42752566 80.00317387 -12.90455404 77.30389876 -13 74 C-13.09796875 74.62648438 -13.1959375 75.25296875 -13.296875 75.8984375 C-13.44640625 76.71570313 -13.5959375 77.53296875 -13.75 78.375 C-13.88921875 79.18710938 -14.0284375 79.99921875 -14.171875 80.8359375 C-15 83 -15 83 -17.078125 84.2890625 C-17.71234375 84.52367187 -18.3465625 84.75828125 -19 85 C-19.25394531 83.96359375 -19.50789063 82.9271875 -19.76953125 81.859375 C-20.11670147 80.48946007 -20.46438479 79.1196751 -20.8125 77.75 C-20.97814453 77.06808594 -21.14378906 76.38617188 -21.31445312 75.68359375 C-22.30000533 71.85295688 -23.3383368 68.95909834 -26 66 C-29.78773894 66.37342852 -29.78773894 66.37342852 -32.51171875 68.85546875 C-36.29701338 76.36317936 -38.73329511 82.47331265 -38 91 C-37.505 91.99 -37.505 91.99 -37 93 C-31.78020872 93.1799928 -27.92737019 92.97094808 -23 91 C-22.71428571 98.42857143 -22.71428571 98.42857143 -25 102 C-25.86625 101.67 -26.7325 101.34 -27.625 101 C-33.60485464 99.32122933 -39.86457572 99.28170643 -46 100 C-49.53331024 101.77741287 -49.53331024 101.77741287 -51 105 C-51.83333333 108.5 -51.83333333 108.5 -51 112 C-47.89474194 116.10990038 -45.0118445 117.93980212 -40 119 C-31.8883162 119.70864152 -25.27168852 118.00778099 -17.875 114.8125 C-10.71453268 111.90696083 -6.20342048 114.26844171 0.6171875 117.078125 C6.90694994 119.51154129 13.97831078 120.14026008 20.3125 117.75 C23.03874138 115.97477305 24.51711784 114.88338197 26 112 C26.66680368 109.04279372 26.66680368 109.04279372 26 106 C23.23842989 102.72971961 21.04574551 100.38110549 16.77734375 99.5859375 C8.38890739 98.96286245 3.06560018 101.55291478 -3.77172852 106.06201172 C-8.8125815 109.16195342 -8.8125815 109.16195342 -12.41650391 108.67041016 C-16.02010688 107.51291569 -18.84146885 106.10568743 -22 104 C-21.85046875 103.27941406 -21.7009375 102.55882812 -21.546875 101.81640625 C-21.20200538 100.04032771 -20.8945595 98.25618607 -20.640625 96.46484375 C-19.98334562 92.21224616 -19.54445042 89.63273967 -16.6875 86.3125 C-13.39913963 84.70655656 -12.46073394 85.00691983 -9 86 C-7.03960375 86.97614214 -5.10283237 88.00065781 -3.1875 89.0625 C1.95900712 91.72799627 5.27073627 92.66106889 11 92 C11.9557658 83.00872176 9.90453483 76.57053197 5 69 C3.70966348 67.62501374 2.38798548 66.27634317 1 65 C2.36341664 61.37292034 4.04306313 58.12431504 5.9375 54.75 C9.81163748 47.17222498 10.87348599 39.34015637 12 31 C12.495 32.98 12.495 32.98 13 35 C13.66 34.67 14.32 34.34 15 34 C15 32.35 15 30.7 15 29 C25.74832337 33.99196441 32.1796317 41.9135663 38 52 C38.66 52.99 39.32 53.98 40 55 C37.00120547 44.72272429 29.58096861 36.23540673 21 30 C19.42614832 29.27084196 17.84280072 28.56177975 16.25 27.875 C11.77717617 25.59989584 10.90944843 22.93357788 9.375 18.25 C8.82392578 16.40921875 8.82392578 16.40921875 8.26171875 14.53125 C6.69022465 10.13301264 4.41585207 7.14335458 1.35546875 3.671875 C0 2 0 2 0 0 Z " fill="#F8FBFB" transform="translate(146,50)"/>
<path d="M0 0 C2.18529519 1.6192527 4.01361439 2.06492579 6.65234375 2.67578125 C11.8478899 4.18860204 15.51128088 6.00855521 18.83984375 10.36328125 C20.23148559 13.20274923 21.35547061 16.07265092 22.4609375 19.03515625 C23.94438337 22.61559783 25.82363938 25.82014745 27.83984375 29.11328125 C38.49634872 46.87412287 40.55987337 68.66571136 35.94140625 88.671875 C32.52145872 100.13233748 27.50344792 110.12398276 19.83984375 119.36328125 C19.13988281 120.22566406 18.43992188 121.08804688 17.71875 121.9765625 C4.65234079 137.32551734 -15.03189575 147.56811866 -35.16015625 149.36328125 C-59.67160929 150.57773944 -80.04612476 144.61009877 -98.47265625 128.05078125 C-107.78078722 119.32794238 -114.76183683 109.35085771 -119.16015625 97.36328125 C-119.16015625 96.37328125 -119.16015625 95.38328125 -119.16015625 94.36328125 C-118.50015625 94.36328125 -117.84015625 94.36328125 -117.16015625 94.36328125 C-115.51015625 98.32328125 -113.86015625 102.28328125 -112.16015625 106.36328125 C-112.16015625 105.37328125 -112.16015625 104.38328125 -112.16015625 103.36328125 C-109.16015625 104.36328125 -109.16015625 104.36328125 -107.65234375 106.953125 C-107.11867188 108.05785156 -106.585 109.16257812 -106.03515625 110.30078125 C-102.65733096 116.93948252 -98.46903051 122.11028988 -93.16015625 127.36328125 C-92.27457031 128.29914063 -92.27457031 128.29914063 -91.37109375 129.25390625 C-86.06924912 134.43897016 -74.81304871 142.36328125 -67.16015625 142.36328125 C-67.86140625 141.95078125 -68.56265625 141.53828125 -69.28515625 141.11328125 C-85.36694327 131.32436741 -93.68798144 118.40412359 -98.7043457 100.41137695 C-102.00603298 85.57588977 -98.0531203 69.77275262 -90.12109375 57.171875 C-80.23053879 43.00592079 -67.48182489 34.73173771 -50.71875 30.7890625 C-39.5832953 28.93598683 -29.71816257 31.05096554 -19.16015625 34.36328125 C-22.54274801 25.15078479 -26.54192692 15.80503441 -35.16015625 10.36328125 C-37.77833068 9.90461379 -37.77833068 9.90461379 -40.6328125 9.96484375 C-41.69822266 9.96097656 -42.76363281 9.95710938 -43.86132812 9.953125 C-44.97056641 9.96472656 -46.07980469 9.97632812 -47.22265625 9.98828125 C-48.30482422 9.97667969 -49.38699219 9.96507813 -50.50195312 9.953125 C-57.82199107 9.97947187 -64.21089437 11.07323298 -71.16015625 13.36328125 C-71.65515625 11.87828125 -71.65515625 11.87828125 -72.16015625 10.36328125 C-63.49334544 7.84861954 -55.23535213 5.74062827 -46.16015625 5.36328125 C-61.4955757 0.48560331 -78.42046221 3.69784894 -92.72265625 10.55078125 C-105.59290611 17.52277946 -113.27089977 30.68010912 -117.59765625 44.36328125 C-118.7284571 48.33883223 -119.5340386 52.27831949 -120.16015625 56.36328125 C-120.49015625 56.36328125 -120.82015625 56.36328125 -121.16015625 56.36328125 C-123.71268048 43.83270778 -117.34969713 33.21772149 -110.5703125 22.95703125 C-102.22191314 11.68975388 -92.50001484 2.96295687 -80.16015625 -3.63671875 C-79.268125 -4.12914062 -78.37609375 -4.6215625 -77.45703125 -5.12890625 C-55.23017386 -16.3754299 -20.21147595 -15.31393928 0 0 Z M-28.16015625 11.36328125 C-26.91237761 14.01837188 -25.71880415 15.91198927 -23.84765625 18.23828125 C-21.22336479 21.73480831 -20.21203063 25.2549788 -18.97265625 29.42578125 C-17.28344684 34.43006413 -16.13589702 37.08185357 -11.47265625 39.67578125 C-10.60640625 40.10117188 -9.74015625 40.5265625 -8.84765625 40.96484375 C-0.05893878 45.53804266 6.49525616 53.58778977 10.83984375 62.36328125 C10.83984375 63.35328125 10.83984375 64.34328125 10.83984375 65.36328125 C10.42734375 64.58984375 10.01484375 63.81640625 9.58984375 63.01953125 C4.00263053 52.94259313 -2.04628911 45.95818648 -12.16015625 40.36328125 C-13.26556551 43.15246274 -13.26556551 43.15246274 -13.16015625 45.36328125 C-14.15015625 45.85828125 -14.15015625 45.85828125 -15.16015625 46.36328125 C-15.65515625 44.38328125 -15.65515625 44.38328125 -16.16015625 42.36328125 C-16.29550781 43.42804688 -16.43085938 44.4928125 -16.5703125 45.58984375 C-17.90276281 54.90836465 -20.08908232 62.30401404 -24.734375 70.5078125 C-26.45797223 73.42778945 -26.45797223 73.42778945 -26.16015625 77.36328125 C-24.96944331 79.32230096 -24.96944331 79.32230096 -23.34765625 81.17578125 C-17.67978361 88.46496024 -16.71854162 94.31835936 -17.16015625 103.36328125 C-24.09770702 104.16376788 -28.27998949 102.12646675 -34.328125 98.7734375 C-37.04286987 97.42168178 -39.15181953 96.65901605 -42.16015625 96.36328125 C-45.0535007 97.55724149 -45.0535007 97.55724149 -47.16015625 100.36328125 C-48.18538528 103.6550977 -48.6771802 106.95620018 -49.16015625 110.36328125 C-49.4841387 112.03179084 -49.81480854 113.69906256 -50.16015625 115.36328125 C-48.63269661 116.26285234 -47.08733386 117.13206528 -45.53515625 117.98828125 C-44.67664063 118.47554688 -43.818125 118.9628125 -42.93359375 119.46484375 C-39.23240183 120.66382141 -37.67210354 119.94816003 -34.16015625 118.36328125 C-32.10260746 117.1821948 -30.06139694 115.97230754 -28.03515625 114.73828125 C-21.63141667 111.23269124 -16.3854875 109.96797028 -9.16015625 111.36328125 C-5.9755869 112.68208192 -3.74269763 114.19819849 -2.16015625 117.36328125 C-1.74550603 121.09513325 -1.86215925 122.87765651 -3.84765625 126.11328125 C-7.44592511 129.6142996 -9.9160205 130.28033887 -14.91015625 130.61328125 C-22.26259393 130.39257018 -28.52880858 128.47193197 -35.01953125 125.0703125 C-39.39355302 123.62560823 -43.48362993 125.77602571 -47.59765625 127.36328125 C-51.47723551 128.79287254 -55.016708 130.0029814 -59.16015625 130.36328125 C-59.83433594 130.42644531 -60.50851563 130.48960937 -61.203125 130.5546875 C-67.17611227 130.8733839 -72.07728167 129.57634573 -77.16015625 126.36328125 C-79.66047279 122.61280643 -79.69619179 120.80471859 -79.16015625 116.36328125 C-77.53515625 113.42578125 -77.53515625 113.42578125 -74.16015625 111.36328125 C-66.98454137 110.52320926 -59.93889487 110.78090463 -53.16015625 113.36328125 C-50.83424771 109.72904916 -50.99749792 106.59239794 -51.16015625 102.36328125 C-51.98515625 102.69328125 -52.81015625 103.02328125 -53.66015625 103.36328125 C-57.74755455 104.53110934 -60.92938969 104.50916975 -65.16015625 104.36328125 C-67.26808944 100.14741487 -66.685379 95.17842929 -65.40625 90.7578125 C-63.51807213 85.86335926 -61.26920754 81.582708 -58.16015625 77.36328125 C-55.91015625 77.30078125 -55.91015625 77.30078125 -53.16015625 78.36328125 C-49.63599304 83.72717711 -48.28039325 90.12827795 -47.16015625 96.36328125 C-45.14624479 95.69096477 -45.14624479 95.69096477 -43.16015625 94.36328125 C-42.24855532 92.19119537 -42.24855532 92.19119537 -41.91015625 89.73828125 C-41.760625 88.92101562 -41.61109375 88.10375 -41.45703125 87.26171875 C-41.3590625 86.63523437 -41.26109375 86.00875 -41.16015625 85.36328125 C-41.14339844 85.94335938 -41.12664062 86.5234375 -41.109375 87.12109375 C-40.66149202 91.172095 -40.12259558 93.57175787 -36.89453125 96.2265625 C-31.15629242 99.45632542 -25.63732108 101.30145095 -19.16015625 102.36328125 C-18.61362875 93.75547314 -20.37677168 87.51651295 -25.91015625 80.80078125 C-26.65265625 79.99640625 -27.39515625 79.19203125 -28.16015625 78.36328125 C-30.12498015 78.88138485 -30.12498015 78.88138485 -32.16015625 80.36328125 C-33.21368468 82.67293973 -34.21734721 85.00625865 -35.16015625 87.36328125 C-36.15015625 87.85828125 -36.15015625 87.85828125 -37.16015625 88.36328125 C-34.01729911 79.79185268 -34.01729911 79.79185268 -32.16015625 76.36328125 C-33.48015625 75.04328125 -34.80015625 73.72328125 -36.16015625 72.36328125 C-35.85078125 71.78578125 -35.54140625 71.20828125 -35.22265625 70.61328125 C-32.96080995 65.82348909 -32.90629566 61.60973353 -33.16015625 56.36328125 C-33.82015625 55.70328125 -34.48015625 55.04328125 -35.16015625 54.36328125 C-35.78515625 51.73828125 -35.78515625 51.73828125 -36.16015625 49.36328125 C-38.48624195 48.98264904 -40.82070889 48.6505818 -43.16015625 48.36328125 C-44.45649246 49.4297324 -44.45649246 49.4297324 -44.22265625 51.92578125 C-44.20203125 52.73015625 -44.18140625 53.53453125 -44.16015625 54.36328125 C-45.15015625 54.69328125 -46.14015625 55.02328125 -47.16015625 55.36328125 C-48.49489541 58.26020391 -49.05753239 61.18194146 -49.16015625 64.36328125 C-47.47715063 67.43130576 -47.47715063 67.43130576 -45.16015625 69.36328125 C-47.63515625 67.38328125 -47.63515625 67.38328125 -50.16015625 65.36328125 C-49.99515625 64.68265625 -49.83015625 64.00203125 -49.66015625 63.30078125 C-49.08926566 59.94679905 -49.09356602 56.7593832 -49.16015625 53.36328125 C-48.50015625 53.36328125 -47.84015625 53.36328125 -47.16015625 53.36328125 C-46.50015625 51.38328125 -45.84015625 49.40328125 -45.16015625 47.36328125 C-43.90203125 47.32203125 -42.64390625 47.28078125 -41.34765625 47.23828125 C-40.63996094 47.21507812 -39.93226563 47.191875 -39.203125 47.16796875 C-37.16015625 47.36328125 -37.16015625 47.36328125 -34.16015625 49.36328125 C-33.17578125 52.04296875 -33.17578125 52.04296875 -32.41015625 55.23828125 C-32.1471875 56.28757813 -31.88421875 57.336875 -31.61328125 58.41796875 C-31.17168405 61.28835055 -31.32438653 62.65965035 -32.16015625 65.36328125 C-32.22472504 66.77862903 -32.24626664 68.19665814 -32.22265625 69.61328125 C-32.20203125 70.85078125 -32.18140625 72.08828125 -32.16015625 73.36328125 C-31.17015625 73.36328125 -30.18015625 73.36328125 -29.16015625 73.36328125 C-22.39909342 60.69021929 -18.66114018 50.94563975 -19.16015625 36.36328125 C-33.35908949 31.51486502 -50.38709186 31.03511653 -64.16015625 37.36328125 C-78.71981849 45.1438415 -88.81000729 55.63483408 -94.16015625 71.36328125 C-94.45921875 72.13027344 -94.75828125 72.89726563 -95.06640625 73.6875 C-100.17185088 87.98747224 -96.95839334 102.90700735 -90.80859375 116.30859375 C-82.90993985 130.38496579 -70.9734575 139.67689777 -55.66015625 144.36328125 C-39.80351282 148.75302328 -26.72738736 145.36228788 -12.34765625 138.11328125 C1.59092224 130.17769791 10.50600054 118.81748039 14.83984375 103.36328125 C16.32779307 95.92353464 16.38496922 87.92112247 15.83984375 80.36328125 C15.17984375 79.70328125 14.51984375 79.04328125 13.83984375 78.36328125 C13.83984375 81.66328125 13.83984375 84.96328125 13.83984375 88.36328125 C11.52984375 87.70328125 9.21984375 87.04328125 6.83984375 86.36328125 C8.83984375 86.36328125 10.83984375 86.36328125 12.83984375 86.36328125 C12.83984375 83.39328125 12.83984375 80.42328125 12.83984375 77.36328125 C10.52984375 76.70328125 8.21984375 76.04328125 5.83984375 75.36328125 C6.16984375 74.37328125 6.49984375 73.38328125 6.83984375 72.36328125 C7.70609375 72.88921875 7.70609375 72.88921875 8.58984375 73.42578125 C11.23770881 74.52905836 12.17169701 74.16484634 14.83984375 73.36328125 C18.18558018 83.40049054 17.56371804 95.0200355 15.83984375 105.36328125 C21.83005063 99.37307437 22.25383513 86.37729697 22.27734375 78.30078125 C21.94433515 58.45601413 15.45224032 42.2704087 1.53125 27.99609375 C-7.05560387 19.83514783 -16.57793142 14.05384233 -28.16015625 11.36328125 Z " fill="#1B6691" transform="translate(174.16015625,38.63671875)"/>
<path d="M0 0 C1.11632812 -0.05414063 2.23265625 -0.10828125 3.3828125 -0.1640625 C9.13392174 -0.25901006 12.97701919 -0.08999592 17.46875 3.72265625 C23.56188096 10.02650067 27.28065391 16.89053113 28.875 25.5 C18.875 23.5 18.875 23.5 16.44140625 22.953125 C0.80862817 20.1929998 -14.29936897 24.52390902 -27.125 33.5 C-38.88243886 41.92521786 -46.23719373 54.90921591 -49.6953125 68.7890625 C-52.15786443 84.32552647 -49.58270456 99.96257198 -40.83984375 113.19921875 C-33.60224314 122.90980362 -25.60571461 130.2050564 -14.125 134.5 C-18.63851934 135.9588151 -21.66646477 134.38346808 -25.8125 132.5 C-26.53002441 132.17749268 -27.24754883 131.85498535 -27.98681641 131.52270508 C-33.70610132 128.86367116 -38.48484969 125.79934831 -43.125 121.5 C-43.94355469 120.78328125 -44.76210937 120.0665625 -45.60546875 119.328125 C-55.10597235 110.53189473 -63.90891224 97.26854525 -65.39453125 84.11328125 C-65.45013349 81.29778581 -65.3978804 79.0457608 -64.125 76.5 C-64.0020062 74.37764193 -63.94944318 72.25088537 -63.9375 70.125 C-63.92332031 68.98289062 -63.90914062 67.84078125 -63.89453125 66.6640625 C-63.91449517 63.58621131 -63.91449517 63.58621131 -65.171875 61.4296875 C-67.60833355 56.49685749 -64.72170953 49.33638515 -63.1171875 44.3984375 C-60.32438972 37.24073723 -56.62300217 29.99800217 -51.125 24.5 C-49.46044688 24.36624127 -47.79294915 24.26858086 -46.125 24.1875 C-38.92184047 23.57008633 -33.57073336 21.78622901 -28.25 16.8125 C-26.34449125 13.84214812 -25.70200869 12.12053478 -24.875 8.8125 C-24.0342076 5.88693579 -23.69140707 4.82351162 -21.01171875 3.29296875 C-18.72680403 2.55319572 -16.47229771 1.99885644 -14.125 1.5 C-9.93708057 -0.59395971 -4.60166613 0.09369908 0 0 Z " fill="#F9FBFC" transform="translate(126.125,47.5)"/>
<path d="M0 0 C1.48858248 0.60866847 2.99914852 1.16320036 4.51367188 1.70410156 C6.97898119 2.81079151 8.20818384 3.51222334 9.77929688 5.72753906 C10.39722406 8.84247023 10.7494141 11.89936653 11.00561523 15.06274414 C11.51131745 20.42029413 12.71817108 23.41319454 16.56054688 27.14160156 C20.64013208 30.0576431 25.10355604 31.96885173 29.77929688 33.72753906 C30.10929687 31.74753906 30.43929687 29.76753906 30.77929688 27.72753906 C40.82351158 36.96310936 44.21498618 54.07999656 44.98242188 67.20019531 C45.28187559 90.13335904 36.98593657 110.63007982 21.39648438 127.32910156 C16.27800594 132.01976688 10.54121238 135.87533382 4.77929688 139.72753906 C4.11929688 139.39753906 3.45929688 139.06753906 2.77929688 138.72753906 C3.41996094 138.17066406 4.060625 137.61378906 4.72070312 137.04003906 C19.38523224 124.10203424 30.55474477 108.7210444 32.77929688 88.72753906 C33.97236206 69.13615289 29.72411254 50.7092095 17.13476562 35.25097656 C15.09844561 32.96231718 13.02577655 30.8135559 10.77929688 28.72753906 C10.26367188 28.20675781 9.74804688 27.68597656 9.21679688 27.14941406 C-0.0017295 18.32823797 -11.76326232 13.54078773 -23.76367188 9.82128906 C-27.63522186 8.59639189 -31.3418864 7.12127815 -35.07226562 5.52441406 C-48.28301594 0.62442667 -63.22437585 3.96026841 -76.22070312 7.72753906 C-77.88300126 8.08201588 -79.54819156 8.42489411 -81.22070312 8.72753906 C-61.0201691 -13.1483947 -24.89037641 -10.33161978 0 0 Z " fill="#F6FAF9" transform="translate(165.220703125,36.2724609375)"/>
<path d="M0 0 C0 0.33 0 0.66 0 1 C-0.87140625 1.03738281 -1.7428125 1.07476562 -2.640625 1.11328125 C-11.13636555 1.58220199 -20.25077479 2.12538739 -28 6 C-28.31655664 7.92806341 -28.31655664 7.92806341 -28.375 10.1875 C-28.94731627 16.30837402 -31.46628831 19.53297143 -35.875 23.75 C-39.74373632 26.53549015 -42.74067124 28.0136929 -47.578125 27.984375 C-53.32341197 27.98222448 -53.32341197 27.98222448 -58.08984375 30.86328125 C-64.71666467 39.95522155 -69.70926139 51.64409213 -70 63 C-69.33983467 64.33656424 -68.6726839 65.66969229 -68 67 C-67.76953125 70.1640625 -67.76953125 70.1640625 -67.8125 73.625 C-67.81894531 74.77226563 -67.82539062 75.91953125 -67.83203125 77.1015625 C-68 80 -68 80 -69 82 C-69.29940143 87.78842765 -68.5898567 92.43550155 -67 98 C-67.66 98 -68.32 98 -69 98 C-68.34 99.98 -67.68 101.96 -67 104 C-69.74515677 101.61666905 -70.89080018 99.31090681 -72.1875 95.9375 C-72.53167969 95.05964844 -72.87585938 94.18179688 -73.23046875 93.27734375 C-74 91 -74 91 -74 89 C-75.485 89.495 -75.485 89.495 -77 90 C-77.32613281 89.40832031 -77.65226562 88.81664062 -77.98828125 88.20703125 C-78.42527344 87.41683594 -78.86226562 86.62664062 -79.3125 85.8125 C-79.74175781 85.03519531 -80.17101562 84.25789063 -80.61328125 83.45703125 C-81.97423651 80.96553166 -81.97423651 80.96553166 -83.640625 78.58984375 C-86.19936714 73.71499881 -85.59759063 68.35288627 -85 63 C-84.17008406 60.51025219 -83.16643404 58.32232932 -81.9453125 56.00390625 C-80.76939524 53.76601863 -80.76939524 53.76601863 -80.4375 50.0625 C-80.293125 49.051875 -80.14875 48.04125 -80 47 C-79.01 46.34 -78.02 45.68 -77 45 C-75.96936614 42.27024282 -75.96936614 42.27024282 -75.1875 39.0625 C-71.30453092 25.75783613 -63.41773856 12.00595385 -51 5 C-35.07297573 -2.41284374 -16.87641444 -6.67114735 0 0 Z " fill="#3F8498" transform="translate(131,44)"/>
<path d="M0 0 C16.2870062 3.78348595 30.43854377 14.401924 39.4765625 28.421875 C39.97929687 29.27265625 40.48203125 30.1234375 41 31 C41.54398438 31.91265625 42.08796875 32.8253125 42.6484375 33.765625 C51.95580079 50.74588779 52.20100682 70.63794469 47.0703125 88.9375 C46 92 46 92 44 94 C44.2475 92.515 44.2475 92.515 44.5 91 C45.67248054 81.4842159 46.0539325 71.1617975 43 62 C42.38640625 62.18433594 41.7728125 62.36867187 41.140625 62.55859375 C38.42182204 63.11922283 37.3213118 62.40936788 35 61 C34.67 61.99 34.34 62.98 34 64 C36.31 64.66 38.62 65.32 41 66 C41 68.97 41 71.94 41 75 C32.11762677 73.84442911 32.11762677 73.84442911 28.1875 70.875 C27.465625 69.92625 26.74375 68.9775 26 68 C25.54753906 67.44441406 25.09507812 66.88882813 24.62890625 66.31640625 C20.90300297 61.23946722 20.38795645 56.76239983 20.23828125 50.5390625 C20.25650021 47.8312039 20.25650021 47.8312039 18 46 C17.67 48.31 17.34 50.62 17 53 C16.01 52.34 15.02 51.68 14 51 C13.7503844 48.26908649 13.67336369 45.78548387 13.75 43.0625 C13.75515625 42.33353516 13.7603125 41.60457031 13.765625 40.85351562 C13.8300122 36.46311341 14.62061604 33.13815189 16 29 C27.25797544 35.96922289 33.46643553 43.71475228 40 55 C37.00120547 44.72272429 29.58096861 36.23540673 21 30 C19.42614832 29.27084196 17.84280072 28.56177975 16.25 27.875 C11.77717617 25.59989584 10.90944843 22.93357788 9.375 18.25 C9.00761719 17.0228125 8.64023438 15.795625 8.26171875 14.53125 C6.69022465 10.13301264 4.41585207 7.14335458 1.35546875 3.671875 C0 2 0 2 0 0 Z " fill="#F5F9F9" transform="translate(146,50)"/>
<path d="M0 0 C0.99 -0.33 1.98 -0.66 3 -1 C3.07863281 -0.38898438 3.15726563 0.22203125 3.23828125 0.8515625 C3.81902546 3.13717194 3.81902546 3.13717194 5.85546875 4.3359375 C6.62503906 4.67882812 7.39460938 5.02171875 8.1875 5.375 C8.94417969 5.73335937 9.70085937 6.09171875 10.48046875 6.4609375 C16.04453175 7.65138819 20.5401034 4.16730545 25.125 1.375 C31.5335514 -2.13322414 36.77010629 -3.38744587 44 -2 C47.76317719 -0.48011484 49.73568779 1.60353169 52 5 C52.65261307 9.19536974 52.21494567 10.68065215 49.8125 14.25 C45.89044844 18.08489486 43.69225725 18.88718285 38.25 19.25 C30.89756232 19.02928893 24.63134767 17.10865072 18.140625 13.70703125 C13.76660323 12.26232698 9.67652632 14.41274446 5.5625 16 C1.68292074 17.42959129 -1.85655175 18.63970015 -6 19 C-6.67417969 19.06316406 -7.34835938 19.12632812 -8.04296875 19.19140625 C-14.92298896 19.55849855 -20.83505386 17.78131631 -26.0625 13.1875 C-27.46499263 9.91501719 -27.43230549 7.52020181 -27 4 C-21.03346654 -5.14868464 -9.33247842 -3.11082614 0 0 Z " fill="#1B6D8E" transform="translate(121,151)"/>
<path d="M0 0 C-0.33 0.66 -0.66 1.32 -1 2 C-4.37398942 0.89665749 -7.72483686 -0.25405672 -11.05859375 -1.47265625 C-11.77466797 -1.73240234 -12.49074219 -1.99214844 -13.22851562 -2.25976562 C-14.69898274 -2.79412636 -16.16775295 -3.33318043 -17.63476562 -3.87695312 C-35.40212996 -10.2783126 -55.8387981 -8.31158688 -73 -1 C-77.87289218 1.34232526 -82.4709585 4.04562525 -87 7 C-85.58847656 6.58427734 -85.58847656 6.58427734 -84.1484375 6.16015625 C-82.28058594 5.61681641 -82.28058594 5.61681641 -80.375 5.0625 C-79.14523438 4.70285156 -77.91546875 4.34320313 -76.6484375 3.97265625 C-61.16619985 -0.15483537 -45.79744094 1.15687071 -31.36328125 7.9765625 C-28.70359189 9.12836186 -26.02057009 9.96281009 -23.25 10.8125 C-3.46947922 17.29709258 10.7550048 30.18315377 20.33691406 48.38330078 C28.66448737 64.95021378 29.36810695 84.55518599 23.69335938 102.06396484 C18.7705428 115.80971677 10.14576965 127.59050602 -1 137 C-3.30078125 137.78125 -3.30078125 137.78125 -5 138 C-2.91984993 134.5597518 -1.39092181 132.30405029 1.8125 129.8125 C10.30448864 123.0834052 14.68600016 111.56999921 16.75 101.25 C17.32586613 94.87529591 17.07495356 88.39603753 17 82 C16.67 84.64 16.34 87.28 16 90 C11.25 89.125 11.25 89.125 9 88 C9.33 87.34 9.66 86.68 10 86 C11.65 86.66 13.3 87.32 15 88 C15 85.03 15 82.06 15 79 C14.21625 78.855625 13.4325 78.71125 12.625 78.5625 C10 78 10 78 8 77 C8.33 75.68 8.66 74.36 9 73 C11.31 73.99 13.62 74.98 16 76 C16.33 75.34 16.66 74.68 17 74 C20.59043021 82.37767049 20.27103899 90.06575166 20 99 C20 99.99 20 100.98 20 102 C25.65026399 82.96399155 24.41863707 62.83140688 14.94921875 45.22265625 C5.33181898 29.32214561 -8.61496695 19.19245646 -26 13 C-25.24203125 14.03060547 -25.24203125 14.03060547 -24.46875 15.08203125 C-23.49421875 16.43361328 -23.49421875 16.43361328 -22.5 17.8125 C-21.8503125 18.70582031 -21.200625 19.59914063 -20.53125 20.51953125 C-19 23 -19 23 -19 26 C-19.66 26 -20.32 26 -21 26 C-22.81475876 23.60470128 -24.41229143 21.09661273 -26.05078125 18.578125 C-29.79410695 13.59365563 -29.79410695 13.59365563 -35.56469727 11.64208984 C-38.76149094 11.49511679 -41.92548402 11.50442916 -45.125 11.5625 C-46.74148437 11.55186523 -46.74148437 11.55186523 -48.390625 11.54101562 C-55.68023501 11.59810293 -62.07795345 12.72927116 -69 15 C-69.495 13.515 -69.495 13.515 -70 12 C-61.33318919 9.48533829 -53.07519588 7.37734702 -44 7 C-59.33541945 2.12232206 -76.26030596 5.33456769 -90.5625 12.1875 C-103.43274986 19.15949821 -111.11074352 32.31682787 -115.4375 46 C-116.56830085 49.97555098 -117.37388235 53.91503824 -118 58 C-118.33 58 -118.66 58 -119 58 C-121.55252423 45.46942653 -115.18954088 34.85444024 -108.41015625 24.59375 C-100.06175689 13.32647263 -90.33985859 4.59967562 -78 -2 C-77.10796875 -2.49242187 -76.2159375 -2.98484375 -75.296875 -3.4921875 C-51.32032768 -15.6240333 -23.19583761 -10.99542952 0 0 Z " fill="#118F76" transform="translate(172,37)"/>
<path d="M0 0 C1.62276158 2.43414237 2.61744792 4.31319446 3.625 7 C4.01558594 8.0209375 4.01558594 8.0209375 4.4140625 9.0625 C5 11 5 11 5 14 C5.73476562 14.27457031 6.46953125 14.54914063 7.2265625 14.83203125 C18.84700462 19.72571039 27.28417115 28.94076174 33 40 C33.72661018 42.48939227 33.94205715 44.39257154 34 47 C31.54067877 43.89621809 29.65501097 40.654798 27.75 37.1875 C22.89502165 28.82105932 17.38260924 23.72474339 9 19 C8.505 21.475 8.505 21.475 8 24 C7.34 24 6.68 24 6 24 C5.67128906 25.41539063 5.67128906 25.41539063 5.3359375 26.859375 C3.43927716 34.65301745 1.11712932 41.45127599 -2.828125 48.51171875 C-4.28404707 51.14472254 -4.28404707 51.14472254 -4 55 C-2.80928706 56.95901971 -2.80928706 56.95901971 -1.1875 58.8125 C4.35481251 65.94020215 5.80410982 72.06201005 5 81 C4 82 4 82 0.6875 82.4375 C-4.60982124 82.4183761 -8.62987395 79.92603318 -13.16796875 77.41015625 C-15.92744875 76.03612552 -17.92335028 75.15609843 -21 75 C-23.34030504 76.0077696 -23.34030504 76.0077696 -25 78 C-25.83392764 80.41877817 -25.83392764 80.41877817 -26.125 83.0625 C-26.80789022 87.80789022 -26.80789022 87.80789022 -29 90 C-29.66 90 -30.32 90 -31 90 C-31 87.03 -31 84.06 -31 81 C-31.99 81.495 -31.99 81.495 -33 82 C-36.96807303 83.32269101 -39.82020274 83.34260633 -44 83 C-46.73399598 78.89900602 -46.60757856 75.81617148 -46 71 C-44.31789594 65.22535412 -41.89855501 59.60738319 -38 55 C-35.25 54.125 -35.25 54.125 -33 54 C-29.46633256 57.88257999 -28.0729336 61.25700375 -26.75 66.3125 C-26.41484375 67.56675781 -26.0796875 68.82101563 -25.734375 70.11328125 C-25.49203125 71.06589844 -25.2496875 72.01851563 -25 73 C-24.01 72.505 -24.01 72.505 -23 72 C-22.38727695 69.91193 -22.38727695 69.91193 -22 67.5 C-21.5625 65.03125 -21.5625 65.03125 -21 63 C-20.01 62.505 -20.01 62.505 -19 62 C-17.8422494 65.47325181 -17.93133348 68.36067448 -18 72 C-17.30132812 72.27714844 -16.60265625 72.55429688 -15.8828125 72.83984375 C-11.81755989 74.47586004 -7.78205472 76.18135606 -3.7421875 77.87890625 C-1.85346291 78.65107713 0.06423772 79.35474591 2 80 C0.88719281 71.21468008 -0.31371553 63.26720111 -7 57 C-8.99863756 57.57944932 -8.99863756 57.57944932 -11 59 C-11.69100553 60.99172182 -12.35902703 62.99161804 -13 65 C-14.485 65.495 -14.485 65.495 -16 66 C-15.5317879 61.22423661 -14.75668002 57.95523655 -12 54 C-13.32 52.68 -14.64 51.36 -16 50 C-15.690625 49.4225 -15.38125 48.845 -15.0625 48.25 C-12.8006537 43.46020784 -12.74613941 39.24645228 -13 34 C-13.66 33.34 -14.32 32.68 -15 32 C-15.125 29.375 -15.125 29.375 -15 27 C-17.31 27 -19.62 27 -22 27 C-22.12375 27.804375 -22.2475 28.60875 -22.375 29.4375 C-22.58125 30.283125 -22.7875 31.12875 -23 32 C-23.99 32.495 -23.99 32.495 -25 33 C-25.80319006 35.00824419 -25.80319006 35.00824419 -26.3125 37.375 C-26.51488281 38.16648438 -26.71726562 38.95796875 -26.92578125 39.7734375 C-27.25687644 42.08907778 -27.25687644 42.08907778 -25.54296875 43.6640625 C-25.03378906 44.10492188 -24.52460938 44.54578125 -24 45 C-24 45.66 -24 46.32 -24 47 C-26.46800047 45.84826645 -28.04783565 44.95216435 -30 43 C-29.6875 40.8125 -29.6875 40.8125 -29 38 C-28.65596692 35.66822025 -28.32050798 33.33512959 -28 31 C-27.34 31 -26.68 31 -26 31 C-26.04125 30.21625 -26.0825 29.4325 -26.125 28.625 C-26 26 -26 26 -24 24 C-17.04706051 23.43927907 -17.04706051 23.43927907 -13.85546875 25.1484375 C-11.41457128 27.58419624 -10.95976898 29.59650746 -10.1875 32.9375 C-9.93355469 33.97777344 -9.67960937 35.01804688 -9.41796875 36.08984375 C-9.01098318 38.92352836 -9.18134111 40.32829565 -10 43 C-10.06456879 44.41534778 -10.08611039 45.83337689 -10.0625 47.25 C-10.041875 48.4875 -10.02125 49.725 -10 51 C-0.51612285 40.81361343 1.04238738 27.25537467 2 14 C1.195625 13.87625 0.39125 13.7525 -0.4375 13.625 C-1.283125 13.41875 -2.12875 13.2125 -3 13 C-3.495 12.01 -3.495 12.01 -4 11 C-2.02 11.33 -0.04 11.66 2 12 C1.65775391 11.20335938 1.65775391 11.20335938 1.30859375 10.390625 C0.87740234 9.33101562 0.87740234 9.33101562 0.4375 8.25 C0.14746094 7.55390625 -0.14257812 6.8578125 -0.44140625 6.140625 C-1.07831803 3.69987216 -0.80248831 2.3596345 0 0 Z " fill="#197A87" transform="translate(153,61)"/>
<path d="M0 0 C0 0.33 0 0.66 0 1 C-1.25490234 1.03867187 -1.25490234 1.03867187 -2.53515625 1.078125 C-10.64336694 1.47320946 -17.64080887 2.82461253 -25.453125 5.09375 C-28.69629232 5.92240068 -31.60652629 6.3159683 -34.9375 6.5 C-40.91276919 6.91667307 -45.47301201 8.35575038 -49.68359375 12.76171875 C-52.64913004 16.52595309 -54.84473878 20.48582923 -56.875 24.80859375 C-58.23187185 27.45166703 -59.813928 29.88715583 -61.4375 32.375 C-66.95388765 40.9507975 -70.67289384 49.04831026 -73 59 C-74.65 58.01 -76.3 57.02 -78 56 C-77.27868179 38.00311068 -70.11671627 21.80857702 -57.16796875 9.21875 C-42.45551536 -2.92289575 -17.59767308 -6.95625665 0 0 Z " fill="#F5F9F9" transform="translate(131,44)"/>
<path d="M0 0 C9.73933828 4.52335014 16.18600888 11.40436913 21.52734375 20.6171875 C22.86563243 22.78258829 24.17477544 24.25932263 26 26 C27.74627478 28.61941217 28.38722388 30.03824877 29 33 C26.08517222 33.80967438 24.53886783 34.21845993 21.6875 33.0625 C21.130625 32.711875 20.57375 32.36125 20 32 C19.67 32.99 19.34 33.98 19 35 C21.31 35.66 23.62 36.32 26 37 C26 39.97 26 42.94 26 46 C17.11762677 44.84442911 17.11762677 44.84442911 13.1875 41.875 C12.465625 40.92625 11.74375 39.9775 11 39 C10.54753906 38.44441406 10.09507812 37.88882813 9.62890625 37.31640625 C5.90300297 32.23946722 5.38795645 27.76239983 5.23828125 21.5390625 C5.25650021 18.8312039 5.25650021 18.8312039 3 17 C2.67 19.31 2.34 21.62 2 24 C1.01 23.34 0.02 22.68 -1 22 C-1.2496156 19.26908649 -1.32663631 16.78548387 -1.25 14.0625 C-1.24484375 13.33353516 -1.2396875 12.60457031 -1.234375 11.85351562 C-1.18753777 8.65980191 -1.01564109 6.04692328 0 3 C0 2.01 0 1.02 0 0 Z " fill="#15877E" transform="translate(161,79)"/>
<path d="M0 0 C3.63 0 7.26 0 11 0 C11.33 3.3 11.66 6.6 12 10 C12.66 6.7 13.32 3.4 14 0 C17.3 0 20.6 0 24 0 C24 9.24 24 18.48 24 28 C22.02 28 20.04 28 18 28 C17.67 22.72 17.34 17.44 17 12 C16.38284311 16.84593239 16.38284311 16.84593239 15.77368164 21.69287109 C15.11111111 26.77777778 15.11111111 26.77777778 14 29 C12.68 29 11.36 29 10 29 C9.34 26.03 8.68 23.06 8 20 C7.67 22.97 7.34 25.94 7 29 C4.69 29 2.38 29 0 29 C0 19.43 0 9.86 0 0 Z " fill="#0C6888" transform="translate(103,197)"/>
<path d="M0 0 C0.33 0 0.66 0 1 0 C1.02578125 0.91523437 1.0515625 1.83046875 1.078125 2.7734375 C1.13484375 3.96195312 1.1915625 5.15046875 1.25 6.375 C1.29640625 7.55835937 1.3428125 8.74171875 1.390625 9.9609375 C1.59171875 10.96382812 1.7928125 11.96671875 2 13 C3.88327659 14.21247685 3.88327659 14.21247685 6 15 C7.265625 16.9453125 7.265625 16.9453125 8.25 19.125 C8.58515625 19.84945312 8.9203125 20.57390625 9.265625 21.3203125 C9.50796875 21.87460938 9.7503125 22.42890625 10 23 C10.33 23 10.66 23 11 23 C11.02696365 24.79158489 11.04637917 26.58328473 11.0625 28.375 C11.07410156 29.37273437 11.08570312 30.37046875 11.09765625 31.3984375 C11 34 11 34 10 36 C9.70059857 41.78842765 10.4101433 46.43550155 12 52 C11.34 52 10.68 52 10 52 C10.66 53.98 11.32 55.96 12 58 C9.25484323 55.61666905 8.10919982 53.31090681 6.8125 49.9375 C6.46832031 49.05964844 6.12414063 48.18179688 5.76953125 47.27734375 C5 45 5 45 5 43 C3.515 43.495 3.515 43.495 2 44 C1.67386719 43.40832031 1.34773438 42.81664062 1.01171875 42.20703125 C0.57472656 41.41683594 0.13773438 40.62664062 -0.3125 39.8125 C-0.74175781 39.03519531 -1.17101563 38.25789063 -1.61328125 37.45703125 C-2.97423651 34.96553166 -2.97423651 34.96553166 -4.640625 32.58984375 C-7.19936714 27.71499881 -6.59759063 22.35288627 -6 17 C-5.17132688 14.51398063 -4.16746085 12.32531261 -2.953125 10.0078125 C-1.54399026 7.03938932 -1.33835561 4.24821388 -1 1 C-0.67 0.67 -0.34 0.34 0 0 Z " fill="#246395" transform="translate(52,90)"/>
<path d="M0 0 C18.223885 4.92941152 18.223885 4.92941152 23 13 C24.0319626 15.34963386 24.93451794 17.72432976 25.8203125 20.1328125 C27.69902613 24.69895754 30.17671187 28.92701945 32.609375 33.21484375 C34 36 34 36 34 39 C33.34 39 32.68 39 32 39 C30.02 35.04 28.04 31.08 26 27 C25.01 29.475 25.01 29.475 24 32 C17.59960157 31.39996265 12.18526955 27.45112368 7.625 23.125 C3.88238811 18.5955317 3.93605229 12.85627958 3.51953125 7.23046875 C3.34808594 6.16441406 3.17664063 5.09835938 3 4 C2.01 3.34 1.02 2.68 0 2 C0 1.34 0 0.68 0 0 Z " fill="#129B6E" transform="translate(171,38)"/>
<path d="M0 0 C4.29 0 8.58 0 13 0 C17 4 17 4 17.375 7 C17.02059186 9.83526512 16.48338437 11.58950039 15 14 C15.66 14.66 16.32 15.32 17 16 C17.1953125 18.8203125 17.1953125 18.8203125 17.125 22.125 C17.10695312 23.22070312 17.08890625 24.31640625 17.0703125 25.4453125 C17.04710937 26.28835937 17.02390625 27.13140625 17 28 C14.69 28 12.38 28 10 28 C9.95101562 27.21753906 9.90203125 26.43507812 9.8515625 25.62890625 C9.73941406 24.11103516 9.73941406 24.11103516 9.625 22.5625 C9.55539063 21.55316406 9.48578125 20.54382813 9.4140625 19.50390625 C9.27742187 18.67761719 9.14078125 17.85132813 9 17 C8.34 16.67 7.68 16.34 7 16 C7 20.29 7 24.58 7 29 C4.69 29 2.38 29 0 29 C0 19.43 0 9.86 0 0 Z " fill="#0A787F" transform="translate(130,197)"/>
<path d="M0 0 C-0.33 0.66 -0.66 1.32 -1 2 C-4.37398942 0.89665749 -7.72483686 -0.25405672 -11.05859375 -1.47265625 C-11.77466797 -1.73240234 -12.49074219 -1.99214844 -13.22851562 -2.25976562 C-14.69898274 -2.79412636 -16.16775295 -3.33318043 -17.63476562 -3.87695312 C-35.40212996 -10.2783126 -55.8387981 -8.31158688 -73 -1 C-77.87289218 1.34232526 -82.4709585 4.04562525 -87 7 C-86.07058594 6.69964844 -85.14117187 6.39929688 -84.18359375 6.08984375 C-82.94738281 5.70957031 -81.71117187 5.32929687 -80.4375 4.9375 C-79.21933594 4.55464844 -78.00117187 4.17179687 -76.74609375 3.77734375 C-72.78153013 2.95466579 -69.94028039 3.1936878 -66 4 C-69.52012805 6.00647299 -73.07324594 6.81739591 -77 7.75 C-92.19997124 11.6550724 -101.23436719 18.20307923 -109.25 31.75 C-113.9161445 39.99557588 -116.56601857 48.64431531 -118 58 C-118.33 58 -118.66 58 -119 58 C-121.55252423 45.46942653 -115.18954088 34.85444024 -108.41015625 24.59375 C-100.06175689 13.32647263 -90.33985859 4.59967562 -78 -2 C-77.10796875 -2.49242187 -76.2159375 -2.98484375 -75.296875 -3.4921875 C-51.32032768 -15.6240333 -23.19583761 -10.99542952 0 0 Z " fill="#1C8483" transform="translate(172,37)"/>
<path d="M0 0 C2.31 0 4.62 0 7 0 C7 7.59 7 15.18 7 23 C7.99 23 8.98 23 10 23 C10 15.41 10 7.82 10 0 C12.31 0 14.62 0 17 0 C17.14553599 3.89543877 17.23415059 7.79017651 17.3125 11.6875 C17.35439453 12.79029297 17.39628906 13.89308594 17.43945312 15.02929688 C17.56297259 23.20628525 17.56297259 23.20628525 14.703125 27.23828125 C11.17865272 29.53530003 9.13295891 29.60115766 5 29 C1.8149643 27.23984869 1.16703028 26.50109084 0 23 C-0.08209792 21.22686149 -0.10746294 19.45079225 -0.09765625 17.67578125 C-0.09443359 16.64775391 -0.09121094 15.61972656 -0.08789062 14.56054688 C-0.07951172 13.48869141 -0.07113281 12.41683594 -0.0625 11.3125 C-0.05798828 10.22904297 -0.05347656 9.14558594 -0.04882812 8.02929688 C-0.03703743 5.35280915 -0.02058063 2.67643223 0 0 Z " fill="#0C8777" transform="translate(149,197)"/>
<path d="M0 0 C1.47906892 -0.02689216 2.95827483 -0.04634621 4.4375 -0.0625 C5.26121094 -0.07410156 6.08492187 -0.08570313 6.93359375 -0.09765625 C9 0 9 0 10 1 C12.24845548 9.89103539 13.71884844 18.92643245 15 28 C12.36 28 9.72 28 7 28 C7 26.35 7 24.7 7 23 C5.35 23 3.7 23 2 23 C2 24.65 2 26.3 2 28 C-0.31 28 -2.62 28 -5 28 C-4.43858156 18.51396434 -3.01284812 9.03854437 0 0 Z " fill="#165790" transform="translate(87,197)"/>
<path d="M0 0 C6.10604532 1.88996641 11.57715186 4.64393609 17 8 C13.39110228 12.33067726 9.56886686 13.57389282 4.01245117 14.23730469 C1.96261726 14.373052 -0.0709299 14.42002681 -2.125 14.4375 C-2.81464844 14.47037109 -3.50429687 14.50324219 -4.21484375 14.53710938 C-8.12482348 14.57822771 -9.84162294 14.12285714 -12.9609375 11.703125 C-15 9 -15 9 -15.5 5.3125 C-15.335 4.219375 -15.17 3.12625 -15 2 C-10.2651463 -1.15656914 -5.53945975 -0.64713315 0 0 Z " fill="#F8FBFC" transform="translate(113,152)"/>
<path d="M0 0 C2.76734371 1.77816553 3.39752508 2.96674389 5 6 C5.16988301 9.56754318 4.30413021 10.65900552 1.9375 13.3125 C-3.65531405 16.52539317 -9.72845001 15.155172 -15.74609375 13.7109375 C-19.41019347 12.55519028 -22.6309553 10.83766075 -26 9 C-19.46384654 1.90273824 -9.65206272 -2.232236 0 0 Z " fill="#F8FBFB" transform="translate(165,152)"/>
<path d="M0 0 C0.495 1.485 0.495 1.485 1 3 C0.04351562 2.84144531 -0.91296875 2.68289062 -1.8984375 2.51953125 C-19.71745339 0.00016763 -35.26347106 2.22006324 -50 13 C-50.65742187 13.47308594 -51.31484375 13.94617188 -51.9921875 14.43359375 C-59.98559472 20.70397764 -64.87859825 29.47707941 -68 39 C-68.25370361 39.70302246 -68.50740723 40.40604492 -68.76879883 41.13037109 C-71.00206713 47.746634 -71.36832373 53.67951407 -71.1875 60.625 C-71.17396484 61.62917969 -71.16042969 62.63335937 -71.14648438 63.66796875 C-71.11156152 66.11256864 -71.06252748 68.55597734 -71 71 C-73 70 -73 70 -73.61010742 68.17724609 C-76.33469521 52.96254735 -73.14512158 37.81005074 -64.9609375 24.80859375 C-55.04498572 10.6062644 -42.34286955 2.45248395 -25.58203125 -1.58203125 C-17.15879894 -2.94554994 -8.12474906 -2.61644461 0 0 Z " fill="#2E6B98" transform="translate(149,71)"/>
<path d="M0 0 C0.825 0.04125 1.65 0.0825 2.5 0.125 C3.16 0.125 3.82 0.125 4.5 0.125 C6.16666667 0.125 7.83333333 0.125 9.5 0.125 C9.5 0.785 9.5 1.445 9.5 2.125 C10.16 2.125 10.82 2.125 11.5 2.125 C11.5 1.465 11.5 0.805 11.5 0.125 C13.15 0.125 14.8 0.125 16.5 0.125 C16.5 4.745 16.5 9.365 16.5 14.125 C9.83333333 14.125 3.16666667 14.125 -3.5 14.125 C-4.73887548 11.64724905 -4.66741669 9.88846293 -4.6875 7.125 C-4.70167969 6.238125 -4.71585937 5.35125 -4.73046875 4.4375 C-4.39145713 1.03589186 -3.39215126 0.16960756 0 0 Z " fill="#828689" transform="translate(96.5,229.875)"/>
<path d="M0 0 C2.08500161 3.12750241 2.97535225 5.7286327 4.0625 9.3125 C4.40410156 10.42238281 4.74570313 11.53226563 5.09765625 12.67578125 C10.49585536 32.5626533 6.69415861 54.1023472 -3 72 C-5.4155835 75.90625926 -8.0696527 79.46715139 -11 83 C-11.69996094 83.86238281 -12.39992187 84.72476563 -13.12109375 85.61328125 C-20.36840783 94.12661455 -28.82904864 100.39428618 -39 105 C-39.33 104.01 -39.66 103.02 -40 102 C-39.14341797 101.65001953 -39.14341797 101.65001953 -38.26953125 101.29296875 C-20.42008561 93.26213709 -8.42716367 77.78661015 -1 60 C4.90196242 43.33309955 5.31317855 28.04333662 1 11 C-1.12195122 2.24390244 -1.12195122 2.24390244 0 0 Z " fill="#1E8984" transform="translate(205,75)"/>
<path d="M0 0 C2.64 0.99 5.28 1.98 8 3 C8.33 2.34 8.66 1.68 9 1 C12.59043021 9.37767049 12.27103899 17.06575166 12 26 C12 26.99 12 27.98 12 29 C12.99 28.01 13.98 27.02 15 26 C14.3358129 40.6121163 2.98595447 52.17968741 -6.66796875 62.03125 C-8.9107703 63.9246704 -10.13587831 64.63128548 -13 65 C-10.91984993 61.5597518 -9.39092181 59.30405029 -6.1875 56.8125 C2.30448864 50.0834052 6.68600016 38.56999921 8.75 28.25 C9.32586613 21.87529591 9.07495356 15.39603753 9 9 C8.67 11.64 8.34 14.28 8 17 C3.25 16.125 3.25 16.125 1 15 C1.33 14.34 1.66 13.68 2 13 C3.65 13.66 5.3 14.32 7 15 C7 12.03 7 9.06 7 6 C6.21625 5.855625 5.4325 5.71125 4.625 5.5625 C2 5 2 5 0 4 C0 2.68 0 1.36 0 0 Z " fill="#0F857C" transform="translate(180,110)"/>
<path d="M0 0 C5.28 0 10.56 0 16 0 C16 1.65 16 3.3 16 5 C14.68 5 13.36 5 12 5 C12 12.59 12 20.18 12 28 C9.69 28 7.38 28 5 28 C5 20.41 5 12.82 5 5 C3.35 5 1.7 5 0 5 C0 3.35 0 1.7 0 0 Z " fill="#069267" transform="translate(167,197)"/>
<path d="M0 0 C1.63001953 0.01353516 1.63001953 0.01353516 3.29296875 0.02734375 C4.12441406 0.03894531 4.95585938 0.05054688 5.8125 0.0625 C5.50736846 6.92795966 4.49204847 11.66184151 -0.78515625 16.5390625 C-2.21986988 17.75331186 -3.70021996 18.91323815 -5.1875 20.0625 C-6.5075 19.4025 -7.8275 18.7425 -9.1875 18.0625 C-7.07514326 14.20198595 -5.29038196 11.16538196 -2.1875 8.0625 C-2.1875 7.0725 -2.1875 6.0825 -2.1875 5.0625 C-3.04021484 5.60390625 -3.04021484 5.60390625 -3.91015625 6.15625 C-8.98053114 9.20355377 -12.26656443 10.69238676 -18.1875 10.0625 C-16.69064027 5.57192081 -13.08454176 3.3972533 -9.1875 1.0625 C-5.90230525 -0.03256492 -3.45086585 -0.03710608 0 0 Z " fill="#248389" transform="translate(97.1875,49.9375)"/>
<path d="M0 0 C3 1 3 1 3.94921875 2.71484375 C5.90517058 8.60339713 6.34860127 13.8155552 6 20 C1.37802694 22.21854707 -1.76824163 23.38281159 -7 23 C-8.0352431 14.3346318 -5.39552723 8.39081726 -1 1 C-0.67 0.67 -0.34 0.34 0 0 Z " fill="#F5F8F9" transform="translate(117,118)"/>
<path d="M0 0 C0.99 -0.33 1.98 -0.66 3 -1 C2.67 0.32 2.34 1.64 2 3 C1.67 2.67 1.34 2.34 1 2 C0.67 2.66 0.34 3.32 0 4 C-1.0725 3.67 -2.145 3.34 -3.25 3 C-8.78952791 1.60022682 -16.75391559 0.3769578 -22 3 C-22.44793509 7.89372301 -22.44793509 7.89372301 -20.47265625 12.21484375 C-17.10438361 14.64659825 -14.17455054 14.47816692 -10.1875 14.3125 C-9.50107422 14.30283203 -8.81464844 14.29316406 -8.10742188 14.28320312 C-3.6683741 14.18661079 0.61807907 13.70454415 5 13 C4 16 4 16 2.3125 17.125 C-4.8459316 19.83359574 -12.79291006 20.18647632 -19.875 17.25 C-25.53678571 14.41416667 -25.53678571 14.41416667 -27 11 C-27.54046356 6.75350057 -27.48376179 4.74176808 -25.125 1.125 C-19.02331939 -4.97668061 -7.53452994 -2.51150998 0 0 Z " fill="#2A6A97" transform="translate(121,151)"/>
<path d="M0 0 C0.66 0 1.32 0 2 0 C3.65 3.96 5.3 7.92 7 12 C7 11.01 7 10.02 7 9 C10 10 10 10 11.5078125 12.58984375 C12.30832031 14.24693359 12.30832031 14.24693359 13.125 15.9375 C16.50198462 22.57454903 20.68742818 27.75244217 26 33 C26.61359375 33.63550781 27.2271875 34.27101562 27.859375 34.92578125 C33.66778723 40.52320415 40.75859158 43.65389976 48 47 C47.67 47.99 47.34 48.98 47 50 C29.94332822 45.02728451 13.43788749 29.50593573 5.03759766 14.25244141 C0 4.46731379 0 4.46731379 0 0 Z " fill="#2C5695" transform="translate(55,133)"/>
<path d="M0 0 C10.22749875 4.75007199 18.15709702 12.7722085 23 23 C22.67 23.66 22.34 24.32 22 25 C21.50371094 24.66226563 21.00742188 24.32453125 20.49609375 23.9765625 C17.05457114 21.71704291 14.34721052 20.08827386 10.3125 19.0625 C6.95870869 17.98675562 5.1426819 16.8818183 3 14.0625 C0.88222769 9.69459461 0.51807423 4.77865482 0 0 Z " fill="#F3F8F7" transform="translate(161,79)"/>
<path d="M0 0 C2.31 0 4.62 0 7 0 C7 0.99 7 1.98 7 3 C5.68 3 4.36 3 3 3 C3 3.99 3 4.98 3 6 C4.32 6 5.64 6 7 6 C7 6.66 7 7.32 7 8 C6.01 8 5.02 8 4 8 C4 8.99 4 9.98 4 11 C5.32 11 6.64 11 8 11 C7.97679687 10.37351563 7.95359375 9.74703125 7.9296875 9.1015625 C7.90261719 7.87566406 7.90261719 7.87566406 7.875 6.625 C7.85179687 5.81289062 7.82859375 5.00078125 7.8046875 4.1640625 C8 2 8 2 10 0 C12.5625 -0.1875 12.5625 -0.1875 15 0 C16 1 16 1 16.1328125 3.6875 C16.13023437 4.780625 16.12765625 5.87375 16.125 7 C16.12886719 8.6396875 16.12886719 8.6396875 16.1328125 10.3125 C16 13 16 13 15 14 C12.46950598 14.07313567 9.96695163 14.09247527 7.4375 14.0625 C6.37112305 14.05573242 6.37112305 14.05573242 5.28320312 14.04882812 C3.52209987 14.03700864 1.76103964 14.01907263 0 14 C0 9.38 0 4.76 0 0 Z " fill="#85888B" transform="translate(123,230)"/>
<path d="M0 0 C3.63 0 7.26 0 11 0 C11 1.65 11 3.3 11 5 C11.66 5 12.32 5 13 5 C13 3.35 13 1.7 13 0 C13.99 0 14.98 0 16 0 C16 4.62 16 9.24 16 14 C15.01 14 14.02 14 13 14 C13 12.02 13 10.04 13 8 C12.34 8 11.68 8 11 8 C11 9.98 11 11.96 11 14 C10.01 14 9.02 14 8 14 C8 10.37 8 6.74 8 3 C7.01 3 6.02 3 5 3 C5 6.63 5 10.26 5 14 C4.01 14 3.02 14 2 14 C2 10.37 2 6.74 2 3 C1.34 3 0.68 3 0 3 C0 2.01 0 1.02 0 0 Z " fill="#717477" transform="translate(157,230)"/>
<path d="M0 0 C2.01135427 3.0170314 2.95126228 5.58549027 4.125 9 C9.72494945 23.74708095 19.86851021 33.43745355 34 40 C36.34393919 40.84754895 38.56252344 41.45833854 41 42 C40.01 42.33 39.02 42.66 38 43 C37.505 43.99 37.505 43.99 37 45 C36.01 44.67 35.02 44.34 34 44 C34 43.34 34 42.68 34 42 C33.28457031 41.89816406 32.56914063 41.79632813 31.83203125 41.69140625 C20.99595578 39.0459092 12.20631014 29.58470382 6.25 20.625 C-1.42886293 7.94430893 -1.42886293 7.94430893 -0.59375 2.2109375 C-0.3978125 1.48132813 -0.201875 0.75171875 0 0 Z " fill="#2D6097" transform="translate(78,140)"/>
<path d="M0 0 C-0.33 0.66 -0.66 1.32 -1 2 C-4.37398942 0.89665749 -7.72483686 -0.25405672 -11.05859375 -1.47265625 C-11.77466797 -1.73240234 -12.49074219 -1.99214844 -13.22851562 -2.25976562 C-14.69898274 -2.79412636 -16.16775295 -3.33318043 -17.63476562 -3.87695312 C-25.71298816 -6.78743582 -33.35548848 -7.15967915 -41.875 -7.125 C-42.81730469 -7.12886719 -43.75960937 -7.13273437 -44.73046875 -7.13671875 C-50.56626029 -7.12864712 -56.21211596 -6.74874065 -62 -6 C-62 -6.66 -62 -7.32 -62 -8 C-40.40366161 -13.66461335 -19.69371948 -9.33533456 0 0 Z " fill="#229E73" transform="translate(172,37)"/>
<path d="M0 0 C0.825 0.04125 1.65 0.0825 2.5 0.125 C3.16 0.125 3.82 0.125 4.5 0.125 C6.16666667 0.125 7.83333333 0.125 9.5 0.125 C8.18 0.455 6.86 0.785 5.5 1.125 C5.5 5.415 5.5 9.705 5.5 14.125 C2.5 14.125 -0.5 14.125 -3.5 14.125 C-4.73887548 11.64724905 -4.66741669 9.88846293 -4.6875 7.125 C-4.70167969 6.238125 -4.71585937 5.35125 -4.73046875 4.4375 C-4.39145713 1.03589186 -3.39215126 0.16960756 0 0 Z " fill="#878A8D" transform="translate(96.5,229.875)"/>
<path d="M0 0 C0.495 1.485 0.495 1.485 1 3 C0.04351562 2.84144531 -0.91296875 2.68289062 -1.8984375 2.51953125 C-16.12069817 0.50869932 -31.22949162 0.7408053 -43.5625 8.8125 C-44.14128906 9.25207031 -44.72007813 9.69164063 -45.31640625 10.14453125 C-47 11 -47 11 -49.21484375 10.63671875 C-49.80394531 10.42660156 -50.39304687 10.21648437 -51 10 C-35.99640603 -0.51432963 -18.03713611 -5.80856926 0 0 Z " fill="#1C7C89" transform="translate(149,71)"/>
<path d="M0 0 C7.24052082 13.26414739 4.66152808 31.0513216 1 45 C0.01 44.34 -0.98 43.68 -2 43 C-1.7834375 42.12214844 -1.7834375 42.12214844 -1.5625 41.2265625 C1.22670689 28.32648064 0.82389791 14.85882083 -2 2 C-1.34 2 -0.68 2 0 2 C0 1.34 0 0.68 0 0 Z " fill="#2D9884" transform="translate(195,94)"/>
<path d="M0 0 C1 3 1 3 -0.44921875 5.93359375 C-1.17936235 7.11159935 -1.92673996 8.27903073 -2.6875 9.4375 C-3.08670654 10.05133545 -3.48591309 10.6651709 -3.8972168 11.29760742 C-6.98356363 15.86455468 -10.43103656 19.90466059 -14.3125 23.8125 C-14.81547607 24.32159912 -15.31845215 24.83069824 -15.83666992 25.35522461 C-18.39968928 27.83105772 -20.37880189 29.61293607 -24 30 C-21.91984993 26.5597518 -20.39092181 24.30405029 -17.1875 21.8125 C-11.88459981 17.65653751 -7.98470686 11.09109107 -5.9609375 4.73828125 C-5 2 -5 2 -2.375 0.625 C-1.199375 0.315625 -1.199375 0.315625 0 0 Z " fill="#157C85" transform="translate(191,145)"/>
<path d="M0 0 C0.66 0 1.32 0 2 0 C1.42157966 3.64404811 0.41843017 6.35062961 -1.375 9.5625 C-4.28860793 15.21185026 -7.77776887 22.70301952 -6.60546875 29.1796875 C-6.40566406 29.78039062 -6.20585938 30.38109375 -6 31 C-5.65939189 32.66519519 -5.32441604 34.33157466 -5 36 C-5.99 36.495 -5.99 36.495 -7 37 C-7.4125 35.9275 -7.825 34.855 -8.25 33.75 C-9.63739149 30.47734926 -11.27999908 28.34482838 -14 26 C-14.33 26.66 -14.66 27.32 -15 28 C-14.67 26.35 -14.34 24.7 -14 23 C-12.515 23.99 -12.515 23.99 -11 25 C-10.70867188 24.03320312 -10.41734375 23.06640625 -10.1171875 22.0703125 C-7.68383428 14.24917926 -5.20970434 6.49303327 0 0 Z " fill="#226F91" transform="translate(68,77)"/>
<path d="M0 0 C2.4375 0.1875 2.4375 0.1875 3.4375 1.1875 C3.53623816 3.18549572 3.56721799 5.18707158 3.5625 7.1875 C3.56507812 8.280625 3.56765625 9.37375 3.5703125 10.5 C3.4375 13.1875 3.4375 13.1875 2.4375 14.1875 C-0.5625 14.3125 -0.5625 14.3125 -3.5625 14.1875 C-5.30099628 12.44900372 -4.73466296 10.1088363 -4.75 7.75 C-4.76417969 6.76128906 -4.77835937 5.77257812 -4.79296875 4.75390625 C-4.47148604 1.17400556 -3.59251442 0.26286691 0 0 Z " fill="#808386" transform="translate(118.5625,229.8125)"/>
<path d="M0 0 C1.32 0 2.64 0 4 0 C4 1.65 4 3.3 4 5 C4.66 5 5.32 5 6 5 C6 3.35 6 1.7 6 0 C6.99 0 7.98 0 9 0 C9 4.62 9 9.24 9 14 C8.01 14 7.02 14 6 14 C6 12.02 6 10.04 6 8 C5.34 8 4.68 8 4 8 C4 9.98 4 11.96 4 14 C2.68 14 1.36 14 0 14 C0 9.38 0 4.76 0 0 Z " fill="#76797C" transform="translate(82,230)"/>
<path d="M0 0 C0.66 0.33 1.32 0.66 2 1 C0.43125788 3.74529871 -1.12899863 6.15111268 -3.1875 8.5625 C-5.39780184 11.02872061 -5.39780184 11.02872061 -5 15 C-5.33 15.66 -5.66 16.32 -6 17 C-7.65 17 -9.3 17 -11 17 C-10.45276317 13.62537285 -9.9451 11.91765 -8 9 C-11.3 8.67 -14.6 8.34 -18 8 C-17.67 7.34 -17.34 6.68 -17 6 C-14.9609375 5.5078125 -14.9609375 5.5078125 -12.375 5.125 C-8.80518078 4.49593444 -6.09224633 3.71090439 -3 1.8125 C-2.01 1.214375 -1.02 0.61625 0 0 Z " fill="#117884" transform="translate(95,54)"/>
<path d="M0 0 C1.65 0 3.3 0 5 0 C7.29612756 9.41002278 7.29612756 9.41002278 7 14 C6.01 14 5.02 14 4 14 C4 13.34 4 12.68 4 12 C3.01 12 2.02 12 1 12 C1 12.66 1 13.32 1 14 C0.01 14 -0.98 14 -2 14 C-1.03644647 4.58997722 -1.03644647 4.58997722 0 0 Z " fill="#797C7F" transform="translate(150,230)"/>
<path d="M0 0 C0.66 0 1.32 0 2 0 C1.35959908 3.66309326 -0.24869322 6.12493447 -2.3125 9.1875 C-8.3448371 18.53823931 -10.94261064 27.04284302 -13 38 C-13.33 38 -13.66 38 -14 38 C-16.56862493 25.39038673 -10.06470302 15.06649828 -3.50390625 4.6171875 C-2.1875 2.6875 -2.1875 2.6875 0 0 Z " fill="#21758E" transform="translate(67,57)"/>
<path d="M0 0 C2.31 0 4.62 0 7 0 C8 1 8 1 8.0625 4.5625 C8.041875 5.696875 8.02125 6.83125 8 8 C6.68 8 5.36 8 4 8 C4 9.98 4 11.96 4 14 C2.68 14 1.36 14 0 14 C0 9.38 0 4.76 0 0 Z " fill="#7F8285" transform="translate(140,230)"/>
<path d="M0 0 C11.11098004 4.66938551 20.21065821 15.03012667 25 26 C25.125 28.75 25.125 28.75 25 31 C22.54067877 27.89621809 20.65501097 24.654798 18.75 21.1875 C14.05304419 13.09337489 8.44704041 7.21381097 0 3 C-0.66 3 -1.32 3 -2 3 C-2 2.34 -2 1.68 -2 1 C-1.34 0.67 -0.68 0.34 0 0 Z " fill="#188E7C" transform="translate(162,77)"/>
<path d="M0 0 C1.50771907 4.78002787 0.58205734 9.08484912 0 14 C3.96 13.34 7.92 12.68 12 12 C11.34 13.32 10.68 14.64 10 16 C6.04340734 17.31886422 3.17660573 17.26518132 -1 17 C-3.08962236 13.86556646 -3.25367554 13.12996308 -3.1875 9.5625 C-3.18105469 8.80066406 -3.17460938 8.03882813 -3.16796875 7.25390625 C-3.00217704 5.02921287 -2.72795852 3.1096887 -2 1 C-1.34 0.67 -0.68 0.34 0 0 Z " fill="#186A8E" transform="translate(110,127)"/>
<path d="M0 0 C1.32 0.33 2.64 0.66 4 1 C5.65 0.67 7.3 0.34 9 0 C8.01 4.62 7.02 9.24 6 14 C4.68 14 3.36 14 2 14 C1.34 9.38 0.68 4.76 0 0 Z " fill="#7E8285" transform="translate(174,230)"/>
<path d="M0 0 C2.08500161 3.12750241 2.97535225 5.7286327 4.0625 9.3125 C4.40410156 10.42238281 4.74570313 11.53226563 5.09765625 12.67578125 C6.86192455 19.1753151 7.1279818 25.18578207 7.0625 31.875 C7.05798828 32.75414062 7.05347656 33.63328125 7.04882812 34.5390625 C7.03712337 36.69273803 7.01919069 38.84637817 7 41 C6.67 41 6.34 41 6 41 C5.67 35.72 5.34 30.44 5 25 C4.67 25 4.34 25 4 25 C3.80664062 24.09378906 3.61328125 23.18757813 3.4140625 22.25390625 C3.15367187 21.03574219 2.89328125 19.81757812 2.625 18.5625 C2.35429687 17.29019531 2.08359375 16.01789063 1.8046875 14.70703125 C1.15436367 11.71112195 0.46241188 8.73139494 -0.25 5.75 C-1 2 -1 2 0 0 Z " fill="#41A489" transform="translate(205,75)"/>
<path d="M0 0 C1.32 0 2.64 0 4 0 C4 1.65 4 3.3 4 5 C4.99 4.67 5.98 4.34 7 4 C6.67 6.97 6.34 9.94 6 13 C4.02 13 2.04 13 0 13 C0 8.71 0 4.42 0 0 Z " fill="#7C7F82" transform="translate(102,231)"/>
<path d="M0 0 C2.64 0.99 5.28 1.98 8 3 C8 5.97 8 8.94 8 12 C4.62537285 11.45276317 2.91765 10.9451 0 9 C-0.29296875 6.8359375 -0.29296875 6.8359375 -0.1875 4.375 C-0.16042969 3.55773437 -0.13335937 2.74046875 -0.10546875 1.8984375 C-0.05326172 0.95871094 -0.05326172 0.95871094 0 0 Z " fill="#E9F0F0" transform="translate(179,113)"/>
<path d="M0 0 C2.31 0 4.62 0 7 0 C7 0.99 7 1.98 7 3 C5.68 3 4.36 3 3 3 C3 3.99 3 4.98 3 6 C4.32 6 5.64 6 7 6 C7 6.66 7 7.32 7 8 C5.68 8 4.36 8 3 8 C3 9.32 3 10.64 3 12 C4.32 12 5.64 12 7 12 C7 12.66 7 13.32 7 14 C4.69 14 2.38 14 0 14 C0 9.38 0 4.76 0 0 Z " fill="#75797C" transform="translate(123,230)"/>
<path d="M0 0 C4.49155941 4.14909447 7.77549254 9.44061494 8.3125 15.5625 C8.1578125 16.7690625 8.1578125 16.7690625 8 18 C1.10565111 12.75429975 1.10565111 12.75429975 0 8 C-0.14059443 5.3086209 -0.0915082 2.6994918 0 0 Z " fill="#E9F1F1" transform="translate(169,102)"/>
<path d="M0 0 C5.75 1.875 5.75 1.875 8 3 C7.67 5.64 7.34 8.28 7 11 C2.25 10.125 2.25 10.125 0 9 C0 6.03 0 3.06 0 0 Z " fill="#F0F7F5" transform="translate(187,57)"/>
<path d="M0 0 C1 3 1 3 0.21484375 4.90234375 C-2.69355825 9.53621972 -5.21015319 12.32659713 -10 15 C-10.66 14.67 -11.32 14.34 -12 14 C-9.01915194 7.91410189 -5.2724523 4.21028351 0 0 Z " fill="#EAF0F1" transform="translate(100,54)"/>
<path d="M0 0 C4.48322338 0.32023024 7.29743806 1.43336976 10.67578125 4.45703125 C12.89854494 7.04697714 13.86963747 9.79730618 15 13 C9.69524551 11.5080378 5.74178021 7.91524022 2 4 C0.76171875 1.7734375 0.76171875 1.7734375 0 0 Z " fill="#EBF4F1" transform="translate(179,43)"/>
<path d="M0 0 C0.93223389 -0.00902344 1.86446777 -0.01804687 2.82495117 -0.02734375 C3.70771729 -0.02347656 4.5904834 -0.01960938 5.5 -0.015625 C6.2940625 -0.01336914 7.088125 -0.01111328 7.90625 -0.00878906 C10 0.25 10 0.25 13 2.25 C11.88927124 2.28758423 11.88927124 2.28758423 10.75610352 2.32592773 C7.35810351 2.4429172 3.96031183 2.56517147 0.5625 2.6875 C-0.60216797 2.72681641 -1.76683594 2.76613281 -2.96679688 2.80664062 C-9.36046672 3.04077501 -15.65265809 3.44215648 -22 4.25 C-22 3.59 -22 2.93 -22 2.25 C-14.70156852 0.33565732 -7.50180188 0.03071624 0 0 Z " fill="#139076" transform="translate(132,26.75)"/>
<path d="M0 0 C4.79269169 4.27918901 7.83923932 8.4680193 8.25 14.9375 C8.1675 15.948125 8.085 16.95875 8 18 C3.91912149 14.36029755 1.73319429 11.19958286 0 6 C-0.1875 2.5625 -0.1875 2.5625 0 0 Z " fill="#E7F2EE" transform="translate(176,45)"/>
<path d="M0 0 C0 0.33 0 0.66 0 1 C2.97 1.33 5.94 1.66 9 2 C9 2.33 9 2.66 9 3 C7.02580078 3.05607422 7.02580078 3.05607422 5.01171875 3.11328125 C-4.32036606 3.44073839 -13.12832746 3.76468823 -22 7 C-22.33 6.01 -22.66 5.02 -23 4 C-7.25512528 -0.59225513 -7.25512528 -0.59225513 0 0 Z " fill="#3D9690" transform="translate(125,45)"/>
<path d="M0 0 C0.33 0 0.66 0 1 0 C2.29561672 6.31613149 2.78161678 12.75020145 1 19 C0.34 19 -0.32 19 -1 19 C-3.2948016 13.1195709 -4.07476444 8.46300183 -1.5 2.5625 C-1.005 1.716875 -0.51 0.87125 0 0 Z " fill="#E8ECF2" transform="translate(50,103)"/>
<path d="M0 0 C2.54508827 0.96537831 3.92083611 1.90617613 5.6875 4 C7.5423331 8.23961852 7.74181277 12.41495096 8 17 C3.63553414 13.22532682 1.37945512 9.64118637 0 4 C0 2.68 0 1.36 0 0 Z " fill="#EAEEF3" transform="translate(54,103)"/>
<path d="M0 0 C5.28534706 0.32032406 8.43220064 3.38726614 12 7 C12.99 8.485 12.99 8.485 14 10 C13.67 10.99 13.34 11.98 13 13 C7.5960543 9.96949943 3.61110219 7.07811245 0 2 C0 1.34 0 0.68 0 0 Z " fill="#EDF4F3" transform="translate(172,100)"/>
<path d="M0 0 C-3.90638388 4.55744786 -8.96942836 7.74745236 -15 8.25 C-15.99 8.12625 -15.99 8.12625 -17 8 C-15.78486238 4.21957184 -13.45119105 2.59948402 -10.01953125 0.75 C-6.60919229 -0.51650886 -3.6026069 -0.25281452 0 0 Z " fill="#ECF2F3" transform="translate(98,52)"/>
<path d="M0 0 C3.46264391 1.15421464 4.28784522 1.83251366 6 5 C5.875 8.125 5.875 8.125 5 11 C4.01 11.66 3.02 12.32 2 13 C-0.125 11.5625 -0.125 11.5625 -2 9 C-1.75232831 5.87179891 -0.94396421 2.98496791 0 0 Z " fill="#F4F7F9" transform="translate(54,118)"/>
<path d="M0 0 C-1.32 2.31 -2.64 4.62 -4 7 C-6.64 7 -9.28 7 -12 7 C-11.125 2.25 -11.125 2.25 -10 0 C-2.58823529 -1.29411765 -2.58823529 -1.29411765 0 0 Z " fill="#F7FAFA" transform="translate(88,63)"/>
<path d="M0 0 C3.55839258 0.88959814 5.68878692 1.70516655 8.375 4.25 C10.28848459 7.48820469 10.49352961 9.29852791 10 13 C9.34 13.66 8.68 14.32 8 15 C7.34 14.67 6.68 14.34 6 14 C5.855625 12.88625 5.71125 11.7725 5.5625 10.625 C5.27040956 7.15099275 5.27040956 7.15099275 3.8125 5.125 C1.30025086 3.56567295 -1.09150946 3.32316562 -4 3 C-2.68 2.67 -1.36 2.34 0 2 C0 1.34 0 0.68 0 0 Z " fill="#2C7F90" transform="translate(163,149)"/>
<path d="M0 0 C0.33 0 0.66 0 1 0 C1.08849232 3.77068057 1.14088454 7.54108765 1.1875 11.3125 C1.22520508 12.8912793 1.22520508 12.8912793 1.26367188 14.50195312 C1.32846203 21.52088615 0.96838649 28.51967632 -2 35 C-3.485 35.495 -3.485 35.495 -5 36 C-4.72285156 34.82566406 -4.44570312 33.65132812 -4.16015625 32.44140625 C-1.68634841 21.58048199 -0.28508613 11.13261354 0 0 Z " fill="#188F7A" transform="translate(210,98)"/>
<path d="M0 0 C-2.15378092 6.46134276 -10.79621225 10.55435612 -16.6875 13.5 C-17.780625 13.995 -18.87375 14.49 -20 15 C-20.33 14.01 -20.66 13.02 -21 12 C-20.38253906 11.72027344 -19.76507813 11.44054687 -19.12890625 11.15234375 C-13.42925831 8.45433688 -8.64815864 5.40533286 -3.8125 1.35546875 C-2 0 -2 0 0 0 Z " fill="#25788E" transform="translate(186,165)"/>
<path d="M0 0 C0.99 0.33 1.98 0.66 3 1 C2.5153125 1.37769531 2.030625 1.75539063 1.53125 2.14453125 C-3.74344282 6.47586555 -7.51918243 11.19074213 -11.3359375 16.83984375 C-12.15964844 17.90912109 -12.15964844 17.90912109 -13 19 C-13.66 19 -14.32 19 -15 19 C-13.6236267 15.05439654 -11.80978922 12.18151744 -9.1875 8.9375 C-8.18783203 7.68259766 -8.18783203 7.68259766 -7.16796875 6.40234375 C-4.92539748 3.91733235 -2.7812788 1.86762199 0 0 Z " fill="#21768E" transform="translate(97,82)"/>
<path d="M0 0 C-3.64571048 2.0792671 -7.52735145 3.03912096 -11.5625 4.0625 C-16.81567537 5.41041167 -16.81567537 5.41041167 -22 7 C-22.99 6.34 -23.98 5.68 -25 5 C-7.51923077 -1.79807692 -7.51923077 -1.79807692 0 0 Z " fill="#2E8C8D" transform="translate(106,41)"/>
<path d="M0 0 C0.99 0 1.98 0 3 0 C2.67 2.64 2.34 5.28 2 8 C2.99 6.02 3.98 4.04 5 2 C5.33 2 5.66 2 6 2 C5.25 8.625 5.25 8.625 3 12 C1.35 12.33 -0.3 12.66 -2 13 C-1.34 8.71 -0.68 4.42 0 0 Z " fill="#208686" transform="translate(189,134)"/>
<path d="M0 0 C15.55288161 -0.39822456 15.55288161 -0.39822456 23 2 C23.33 2.99 23.66 3.98 24 5 C20.37306694 4.75187893 16.74919293 4.47267503 13.125 4.1875 C11.57619141 4.08211914 11.57619141 4.08211914 9.99609375 3.97460938 C9.00996094 3.89404297 8.02382812 3.81347656 7.0078125 3.73046875 C6.09660645 3.66239014 5.18540039 3.59431152 4.24658203 3.52416992 C2 3 2 3 0 0 Z " fill="#55A099" transform="translate(126,69)"/>
<path d="M0 0 C0.71542969 0.26296875 1.43085937 0.5259375 2.16796875 0.796875 C2.16796875 1.456875 2.16796875 2.116875 2.16796875 2.796875 C0.15625 4.1640625 0.15625 4.1640625 -2.51953125 5.671875 C-6.21571926 7.81094551 -9.59343543 9.99009196 -12.83203125 12.796875 C-12.83203125 8.58903892 -11.04421519 7.51005567 -8.14453125 4.546875 C-7.27441406 3.63421875 -6.40429688 2.7215625 -5.5078125 1.78125 C-2.83203125 -0.203125 -2.83203125 -0.203125 0 0 Z " fill="#117884" transform="translate(81.83203125,45.203125)"/>
<path d="M0 0 C2.31 0 4.62 0 7 0 C7 0.66 7 1.32 7 2 C6.34 2 5.68 2 5 2 C5 5.63 5 9.26 5 13 C4.01 13 3.02 13 2 13 C2 9.37 2 5.74 2 2 C1.34 2 0.68 2 0 2 C0 1.34 0 0.68 0 0 Z " fill="#6B6E71" transform="translate(157,231)"/>
<path d="M0 0 C3.98805068 0.48340008 6.73899525 1.94870592 10.15234375 4.01171875 C12.99745684 5.53352343 15.87385743 6.23441407 19 7 C18.01 7.33 17.02 7.66 16 8 C15.67 8.66 15.34 9.32 15 10 C14.01 9.67 13.02 9.34 12 9 C12 8.34 12 7.68 12 7 C11.319375 6.9175 10.63875 6.835 9.9375 6.75 C6.1253093 5.77667472 3.35929671 4.04192545 0 2 C0 1.34 0 0.68 0 0 Z " fill="#38679B" transform="translate(100,175)"/>
<path d="M0 0 C7.27272727 -0.36363636 7.27272727 -0.36363636 10.5 1.25 C12 3 12 3 12 7 C11.01 7.33 10.02 7.66 9 8 C9 6.35 9 4.7 9 3 C6.69 3 4.38 3 2 3 C1.67 4.65 1.34 6.3 1 8 C0.01 6.68 -0.98 5.36 -2 4 C-1.34 2.68 -0.68 1.36 0 0 Z " fill="#2C898C" transform="translate(129,85)"/>
<path d="M0 0 C0.33 0 0.66 0 1 0 C1.20190089 6.35987804 0.6277833 11.85221129 -1 18 C-1.99 17.34 -2.98 16.68 -4 16 C-3.52546129 13.51986371 -3.04561015 11.04096744 -2.5625 8.5625 C-2.42779297 7.85544922 -2.29308594 7.14839844 -2.15429688 6.41992188 C-1.11328125 1.11328125 -1.11328125 1.11328125 0 0 Z " fill="#2D9088" transform="translate(197,121)"/>
<path d="M0 0 C0.99 0 1.98 0 3 0 C2.80664062 0.556875 2.61328125 1.11375 2.4140625 1.6875 C0.68625575 6.75117127 -0.7693067 11.79322065 -2 17 C-2.99 17 -3.98 17 -5 17 C-4.46246904 10.81839396 -2.45417612 5.673142 0 0 Z " fill="#3C7A9C" transform="translate(81,101)"/>
<path d="M0 0 C1.66666667 0.66666667 3.33333333 1.33333333 5 2 C5.886875 2.226875 6.77375 2.45375 7.6875 2.6875 C10 4 10 4 11.3125 7.625 C11.539375 8.73875 11.76625 9.8525 12 11 C10.68 11.33 9.36 11.66 8 12 C7.4225 10.948125 6.845 9.89625 6.25 8.8125 C4.4338994 5.6213518 2.38008879 2.80510465 0 0 Z " fill="#218F82" transform="translate(178,101)"/>
<path d="M0 0 C0.66 0 1.32 0 2 0 C2 0.99 2 1.98 2 3 C2.66 3 3.32 3 4 3 C4.33 2.34 4.66 1.68 5 1 C5.66 3.64 6.32 6.28 7 9 C6.34 9 5.68 9 5 9 C5.66 10.98 6.32 12.96 7 15 C4.25484323 12.61666905 3.10919982 10.31090681 1.8125 6.9375 C1.46832031 6.05964844 1.12414063 5.18179688 0.76953125 4.27734375 C0 2 0 2 0 0 Z " fill="#768DB6" transform="translate(57,133)"/>
<path d="M0 0 C0.33 0.66 0.66 1.32 1 2 C1.66 2 2.32 2 3 2 C2.95875 2.86625 2.9175 3.7325 2.875 4.625 C3.00457721 8.12358468 3.76019656 10.74551597 5 14 C4.01 14.495 4.01 14.495 3 15 C2.38125 13.39125 2.38125 13.39125 1.75 11.75 C0.36260851 8.47734926 -1.27999908 6.34482838 -4 4 C-4.33 4.66 -4.66 5.32 -5 6 C-4.67 4.35 -4.34 2.7 -4 1 C-2.515 1.99 -2.515 1.99 -1 3 C-0.67 2.01 -0.34 1.02 0 0 Z " fill="#3C739C" transform="translate(58,99)"/>
<path d="M0 0 C3.38847145 1.12949048 4.19694184 2.12283218 6.4375 4.8125 C8.85689832 7.66759505 11.2971523 10.4052662 14 13 C10.30159372 13 9.68584567 12.17133056 7 9.75 C6.319375 9.14671875 5.63875 8.5434375 4.9375 7.921875 C3.04921444 6.04881755 1.46643912 4.21798917 0 2 C0 1.34 0 0.68 0 0 Z " fill="#2A5C95" transform="translate(87,162)"/>
<path d="M0 0 C2.092107 3.1381605 2.34920917 4.60476664 2.8125 8.25 C3.70997058 13.74427109 5.43376888 16.77683157 9 21 C8.01 21 7.02 21 6 21 C1.7271572 16.20734664 -0.39994841 11.2867402 -0.375 4.875 C-0.28035166 3.24795 -0.16644313 1.62127934 0 0 Z " fill="#39918E" transform="translate(167,99)"/>
<path d="M0 0 C0.99 0 1.98 0 3 0 C1.68 5.94 0.36 11.88 -1 18 C-1.33 18 -1.66 18 -2 18 C-3.38458877 11.20292787 -2.35001386 6.47913427 0 0 Z " fill="#3D7B9D" transform="translate(55,77)"/>
<path d="M0 0 C0 3 0 3 -1.828125 5.2265625 C-3.02695313 6.41378906 -3.02695313 6.41378906 -4.25 7.625 C-5.03890625 8.42164063 -5.8278125 9.21828125 -6.640625 10.0390625 C-8.89945122 11.91643131 -10.13817731 12.61929882 -13 13 C-9.75428718 7.2141641 -5.3345127 3.85270362 0 0 Z " fill="#096F85" transform="translate(180,162)"/>
<path d="M0 0 C0 5.28 0 10.56 0 16 C-3 13 -3 13 -3.29296875 10.08203125 C-3.25816406 9.00308594 -3.22335938 7.92414063 -3.1875 6.8125 C-3.16042969 5.72582031 -3.13335937 4.63914062 -3.10546875 3.51953125 C-3.07066406 2.68808594 -3.03585938 1.85664062 -3 1 C-1 0 -1 0 0 0 Z " fill="#499E92" transform="translate(199,109)"/>
<path d="M0 0 C0.33 0 0.66 0 1 0 C0.87431641 1.41152344 0.87431641 1.41152344 0.74609375 2.8515625 C0.59333984 4.71941406 0.59333984 4.71941406 0.4375 6.625 C0.33308594 7.85476562 0.22867188 9.08453125 0.12109375 10.3515625 C0.00721593 13.78259098 0.16603266 16.67411826 1 20 C1.66 20.33 2.32 20.66 3 21 C2.01 21.33 1.02 21.66 0 22 C-2.16073695 18.49308963 -2.268848 15.63838074 -2.25 11.5625 C-2.25515625 10.45003906 -2.2603125 9.33757812 -2.265625 8.19140625 C-2.00441051 5.052991 -1.33378454 2.83164575 0 0 Z " fill="#38699B" transform="translate(48,102)"/>
<path d="M0 0 C0.90105469 0.02707031 1.80210937 0.05414063 2.73046875 0.08203125 C3.76107422 0.13423828 3.76107422 0.13423828 4.8125 0.1875 C4.8125 0.8475 4.8125 1.5075 4.8125 2.1875 C3.39872218 2.55302803 1.98129424 2.90445495 0.5625 3.25 C-0.22640625 3.44722656 -1.0153125 3.64445313 -1.828125 3.84765625 C-4.29144822 4.20247267 -5.84354132 3.95627544 -8.1875 3.1875 C-5.67753317 0.01043235 -3.96125134 -0.15433447 0 0 Z " fill="#167489" transform="translate(158.1875,148.8125)"/>
<path d="M0 0 C0.33 0.99 0.66 1.98 1 3 C1.66 3 2.32 3 3 3 C3 6.63 3 10.26 3 14 C2.34 14 1.68 14 1 14 C0.63794536 12.04310963 0.28558579 10.08442332 -0.0625 8.125 C-0.25972656 7.03445312 -0.45695313 5.94390625 -0.66015625 4.8203125 C-1 2 -1 2 0 0 Z " fill="#E0E3E4" transform="translate(156,230)"/>
<path d="M0 0 C0.66 0.66 1.32 1.32 2 2 C1.9765625 4.1640625 1.9765625 4.1640625 1.625 6.625 C1.51414063 7.44226563 1.40328125 8.25953125 1.2890625 9.1015625 C1.19367188 9.72804687 1.09828125 10.35453125 1 11 C-0.32 11 -1.64 11 -3 11 C-3 10.01 -3 9.02 -3 8 C-2.01 8 -1.02 8 0 8 C0 7.34 0 6.68 0 6 C-1.32 6 -2.64 6 -4 6 C-4 5.01 -4 4.02 -4 3 C-2.68 3 -1.36 3 0 3 C0 2.01 0 1.02 0 0 Z " fill="#E0E3E4" transform="translate(130,230)"/>
<path d="M0 0 C4.19978515 1.77324262 7.54143152 4.05004453 11 7 C10.67 7.99 10.34 8.98 10 10 C9.46890625 9.57847656 8.9378125 9.15695313 8.390625 8.72265625 C7.68421875 8.17480469 6.9778125 7.62695312 6.25 7.0625 C5.55390625 6.51722656 4.8578125 5.97195312 4.140625 5.41015625 C2.03907872 4.02574346 0.45678201 3.43713013 -2 3 C-2 2.34 -2 1.68 -2 1 C-1.34 0.67 -0.68 0.34 0 0 Z " fill="#1C907E" transform="translate(162,77)"/>
<path d="M0 0 C2.00993705 3.01490557 2.72623341 5.2149927 3.625 8.6875 C3.88539063 9.68136719 4.14578125 10.67523438 4.4140625 11.69921875 C4.60742188 12.45847656 4.80078125 13.21773437 5 14 C4.01 14.33 3.02 14.66 2 15 C1.47076428 12.87707704 0.95184623 10.75157949 0.4375 8.625 C0.14746094 7.44164063 -0.14257812 6.25828125 -0.44140625 5.0390625 C-1 2 -1 2 0 0 Z " fill="#35A481" transform="translate(205,75)"/>
<path d="M0 0 C0.80244141 0.00966797 1.60488281 0.01933594 2.43164062 0.02929688 C3.26501953 0.05443359 4.09839844 0.07957031 4.95703125 0.10546875 C6.22450195 0.12577148 6.22450195 0.12577148 7.51757812 0.14648438 C9.60183509 0.18181076 11.68576402 0.23561736 13.76953125 0.29296875 C13.76953125 0.62296875 13.76953125 0.95296875 13.76953125 1.29296875 C11.20748581 1.63015922 8.64498807 1.96284028 6.08203125 2.29296875 C5.36080078 2.38835937 4.63957031 2.48375 3.89648438 2.58203125 C0.15960254 3.0598061 -3.45338406 3.41216669 -7.23046875 3.29296875 C-4.91210376 0.51285471 -3.60077825 -0.0766123 0 0 Z " fill="#13827F" transform="translate(125.23046875,69.70703125)"/>
<path d="M0 0 C1.953125 0.7109375 1.953125 0.7109375 4 2 C4.609375 4.1640625 4.609375 4.1640625 4.75 6.625 C4.80671875 7.44226563 4.8634375 8.25953125 4.921875 9.1015625 C4.94765625 9.72804688 4.9734375 10.35453125 5 11 C4.01 11.66 3.02 12.32 2 13 C1.93941406 12.31292969 1.87882813 11.62585938 1.81640625 10.91796875 C1.73261719 10.01691406 1.64882812 9.11585937 1.5625 8.1875 C1.48128906 7.29417969 1.40007812 6.40085937 1.31640625 5.48046875 C1.06510233 2.87256441 1.06510233 2.87256441 0 0 Z " fill="#087A7E" transform="translate(139,92)"/>
<path d="M0 0 C1.00740234 0.13148437 1.00740234 0.13148437 2.03515625 0.265625 C3.9375 0.75 3.9375 0.75 6.9375 2.75 C6.9375 3.41 6.9375 4.07 6.9375 4.75 C1.9875 3.76 -2.9625 2.77 -8.0625 1.75 C-3.52896796 -0.51676602 -3.52896796 -0.51676602 0 0 Z " fill="#31A17F" transform="translate(149.0625,28.25)"/>
<path d="M0 0 C0.66 0 1.32 0 2 0 C0.63629701 2.99220268 -0.94908083 5.29026529 -3.125 7.75 C-3.93324219 8.67039063 -3.93324219 8.67039063 -4.7578125 9.609375 C-5.16773438 10.06828125 -5.57765625 10.5271875 -6 11 C-6.66 10.34 -7.32 9.68 -8 9 C-6.71520959 7.49410612 -5.42195918 5.99542625 -4.125 4.5 C-3.04605469 3.24703125 -3.04605469 3.24703125 -1.9453125 1.96875 C-1.30335938 1.3190625 -0.66140625 0.669375 0 0 Z " fill="#1C7D87" transform="translate(193,155)"/>
<path d="M0 0 C1.53166168 4.08443115 0.63081652 7.79455657 0 12 C-0.99 11.34 -1.98 10.68 -3 10 C-2.88637738 8.5199159 -2.75877092 7.04089926 -2.625 5.5625 C-2.55539063 4.73878906 -2.48578125 3.91507813 -2.4140625 3.06640625 C-2.27742188 2.38449219 -2.14078125 1.70257813 -2 1 C-1.34 0.67 -0.68 0.34 0 0 Z " fill="#2C7394" transform="translate(110,127)"/>
<path d="M0 0 C0.81210938 0.29003906 1.62421875 0.58007812 2.4609375 0.87890625 C3.27820313 1.16636719 4.09546875 1.45382813 4.9375 1.75 C5.56398438 1.97816406 6.19046875 2.20632812 6.8359375 2.44140625 C6.5059375 3.43140625 6.1759375 4.42140625 5.8359375 5.44140625 C1.92382017 4.2855534 -1.0385666 3.08605663 -4.1640625 0.44140625 C-2.1640625 -0.55859375 -2.1640625 -0.55859375 0 0 Z " fill="#365E99" transform="translate(96.1640625,177.55859375)"/>
<path d="M0 0 C4.95 0.99 4.95 0.99 10 2 C10 2.99 10 3.98 10 5 C8.51793505 4.745504 7.03931385 4.47088238 5.5625 4.1875 C4.73878906 4.03667969 3.91507812 3.88585937 3.06640625 3.73046875 C2.38449219 3.48941406 1.70257813 3.24835938 1 3 C0.67 2.01 0.34 1.02 0 0 Z " fill="#215792" transform="translate(102,181)"/>
<path d="M0 0 C-1 2 -1 2 -3.75 3.125 C-6.70186896 3.91973395 -8.97219837 4.17810598 -12 4 C-8.71298741 1.21868166 -4.24676932 -2.12338466 0 0 Z " fill="#2B878C" transform="translate(119,72)"/>
<path d="M0 0 C0.33 0.66 0.66 1.32 1 2 C-0.45463481 2.38909985 -1.91391207 2.76088029 -3.375 3.125 C-4.59316406 3.43824219 -4.59316406 3.43824219 -5.8359375 3.7578125 C-6.55007812 3.83773437 -7.26421875 3.91765625 -8 4 C-8.66 3.34 -9.32 2.68 -10 2 C-6.49223216 0.39644899 -3.85645121 -0.22036864 0 0 Z " fill="#37978D" transform="translate(110,30)"/>
<path d="M0 0 C1.10844919 3.32534757 0.84454356 5.62182575 0 9 C-0.66 9 -1.32 9 -2 9 C-2.33 6.36 -2.66 3.72 -3 1 C-2.01 0.67 -1.02 0.34 0 0 Z " fill="#6B6E71" transform="translate(108,235)"/>
<path d="M0 0 C1.99097846 2.98646769 2.94124926 5.59687262 4 9 C3.01 9.33 2.02 9.66 1 10 C0.63720544 8.71073008 0.28503302 7.41846728 -0.0625 6.125 C-0.35833984 5.04605469 -0.35833984 5.04605469 -0.66015625 3.9453125 C-1 2 -1 2 0 0 Z " fill="#2C9785" transform="translate(153,61)"/>
<path d="M0 0 C1.9955516 3.99110319 2.19546065 5.69986566 2 10 C1.01 10 0.02 10 -1 10 C-0.67 6.7 -0.34 3.4 0 0 Z " fill="#D8DDE8" transform="translate(91,205)"/>
<path d="M0 0 C6.57142857 5.14285714 6.57142857 5.14285714 8 9 C7.01 9 6.02 9 5 9 C0 3.76744186 0 3.76744186 0 0 Z " fill="#098B77" transform="translate(173,85)"/>
<path d="M0 0 C0.99 0 1.98 0 3 0 C3.99 2.31 4.98 4.62 6 7 C5.01 7.33 4.02 7.66 3 8 C0 2.25 0 2.25 0 0 Z " fill="#23987B" transform="translate(186,79)"/>
<path d="M0 0 C0.66 0.33 1.32 0.66 2 1 C2 1.66 2 2.32 2 3 C-1.465 4.485 -1.465 4.485 -5 6 C-4.75 4.125 -4.75 4.125 -4 2 C-2.0625 0.6875 -2.0625 0.6875 0 0 Z " fill="#2A7993" transform="translate(149,151)"/>
<path d="M0 0 C-0.33 2.31 -0.66 4.62 -1 7 C-3 5.6875 -3 5.6875 -5 4 C-5 3.01 -5 2.02 -5 1 C-3 0 -3 0 0 0 Z " fill="#08598B" transform="translate(54,100)"/>
<path d="M0 0 C3.36591866 1.44253657 5.51047079 3.33264727 8 6 C6.35 6.33 4.7 6.66 3 7 C2.01 4.69 1.02 2.38 0 0 Z " fill="#3E659B" transform="translate(51,127)"/>
<path d="M0 0 C2.1519437 3.22791555 2.20086443 4.28400809 2 8 C1.34 8 0.68 8 0 8 C0 6.68 0 5.36 0 4 C-0.66 4 -1.32 4 -2 4 C-1.34 2.68 -0.68 1.36 0 0 Z " fill="#15548F" transform="translate(59,128)"/>
<path d="M0 0 C5.53846154 0.61538462 5.53846154 0.61538462 7.875 2.5625 C8.431875 3.2740625 8.431875 3.2740625 9 4 C5.625 3.6875 5.625 3.6875 2 3 C1.34 2.01 0.68 1.02 0 0 Z " fill="#159B71" transform="translate(155,31)"/>
<path d="M0 0 C0.99 0.33 1.98 0.66 3 1 C3 2.65 3 4.3 3 6 C2.01 6 1.02 6 0 6 C0 4.02 0 2.04 0 0 Z " fill="#F0F5F6" transform="translate(137,202)"/>
<path d="M0 0 C0.66 0 1.32 0 2 0 C1.43628586 3.26954202 0.50037734 4.82575883 -2 7 C-2 3 -2 3 0 0 Z " fill="#28878A" transform="translate(197,149)"/>
<path d="M0 0 C1.9451 2.91765 2.45276317 4.62537285 3 8 C2.01 8 1.02 8 0 8 C-1.125 2.25 -1.125 2.25 0 0 Z " fill="#3E6D9D" transform="translate(78,140)"/>
<path d="M0 0 C2.9719385 1.12451727 5.33440687 2.22293791 8 4 C7.67 4.99 7.34 5.98 7 7 C4.66666667 4.66666667 2.33333333 2.33333333 0 0 Z " fill="#58A59A" transform="translate(178,101)"/>
</svg>
